{
    "asset" : {
        "generator" : "Khronos glTF Blender I/O v1.6.16",
        "version" : "2.0"
    },
    "scene" : 0,
    "scenes" : [
        {
            "name" : "Scene",
            "nodes" : [
                1
            ]
        }
    ],
    "nodes" : [
        {
            "mesh" : 0,
            "name" : "instance_0.004",
            "translation" : [
                -56.025970458984375,
                0,
                -43.61451721191406
            ]
        },
        {
            "children" : [
                0
            ],
            "name" : "SketchUp",
            "scale" : [
                0.02539999969303608,
                0.02539999969303608,
                0.02539999969303608
            ]
        }
    ],
    "materials" : [
        {
            "doubleSided" : true,
            "name" : "Color_M00.007",
            "pbrMetallicRoughness" : {
                "metallicFactor" : 0,
                "roughnessFactor" : 0.5
            }
        }
    ],
    "meshes" : [
        {
            "name" : "ID5.004",
            "primitives" : [
                {
                    "attributes" : {
                        "POSITION" : 0,
                        "NORMAL" : 1
                    },
                    "indices" : 2,
                    "material" : 0
                }
            ]
        }
    ],
    "accessors" : [
        {
            "bufferView" : 0,
            "componentType" : 5126,
            "count" : 49244,
            "max" : [
                1041.1920166015625,
                75.94549560546875,
                1048.4169921875
            ],
            "min" : [
                -49.041648864746094,
                24.0238094329834,
                -349.4375915527344
            ],
            "type" : "VEC3"
        },
        {
            "bufferView" : 1,
            "componentType" : 5126,
            "count" : 49244,
            "type" : "VEC3"
        },
        {
            "bufferView" : 2,
            "componentType" : 5123,
            "count" : 49698,
            "type" : "SCALAR"
        }
    ],
    "bufferViews" : [
        {
            "buffer" : 0,
            "byteLength" : 590928,
            "byteOffset" : 0
        },
        {
            "buffer" : 0,
            "byteLength" : 590928,
            "byteOffset" : 590928
        },
        {
            "buffer" : 0,
            "byteLength" : 99396,
            "byteOffset" : 1181856
        }
    ],
    "buffers" : [
        {
            "byteLength" : 1281252,
            "uri" : "data:application/octet-stream;base64,"
        }
    ]
}
