{
    "asset" : {
        "generator" : "Khronos glTF Blender I/O v1.6.16",
        "version" : "2.0"
    },
    "scene" : 0,
    "scenes" : [
        {
            "name" : "Scene",
            "nodes" : [
                1
            ]
        }
    ],
    "nodes" : [
        {
            "mesh" : 0,
            "name" : "instance_0",
            "translation" : [
                -36.44961929321289,
                0,
                31.0550594329834
            ]
        },
        {
            "children" : [
                0
            ],
            "name" : "SketchUp",
            "scale" : [
                0.02539999969303608,
                0.02539999969303608,
                0.02539999969303608
            ]
        }
    ],
    "materials" : [
        {
            "doubleSided" : true,
            "name" : "Color_M00.014",
            "pbrMetallicRoughness" : {
                "metallicFactor" : 0,
                "roughnessFactor" : 0.5
            }
        },
        {
            "doubleSided" : true,
            "name" : "__auto_.001",
            "pbrMetallicRoughness" : {
                "baseColorFactor" : [
                    0.250980406999588,
                    0.250980406999588,
                    0.250980406999588,
                    1
                ],
                "metallicFactor" : 0,
                "roughnessFactor" : 0.5
            }
        }
    ],
    "meshes" : [
        {
            "name" : "ID5.014",
            "primitives" : [
                {
                    "attributes" : {
                        "POSITION" : 0,
                        "NORMAL" : 1
                    },
                    "indices" : 2,
                    "material" : 0
                },
                {
                    "attributes" : {
                        "POSITION" : 3,
                        "NORMAL" : 4
                    },
                    "indices" : 5,
                    "material" : 1
                }
            ]
        }
    ],
    "accessors" : [
        {
            "bufferView" : 0,
            "componentType" : 5126,
            "count" : 109711,
            "max" : [
                1041.1920166015625,
                47.62253952026367,
                1048.35302734375
            ],
            "min" : [
                -1041.218994140625,
                5.230371952056885,
                -641.9898071289062
            ],
            "type" : "VEC3"
        },
        {
            "bufferView" : 1,
            "componentType" : 5126,
            "count" : 109711,
            "type" : "VEC3"
        },
        {
            "bufferView" : 2,
            "componentType" : 5125,
            "count" : 110670,
            "type" : "SCALAR"
        },
        {
            "bufferView" : 3,
            "componentType" : 5126,
            "count" : 3,
            "max" : [
                357.883056640625,
                36.327552795410156,
                967.0883178710938
            ],
            "min" : [
                341.6144104003906,
                36.327552795410156,
                950.8355102539062
            ],
            "type" : "VEC3"
        },
        {
            "bufferView" : 4,
            "componentType" : 5126,
            "count" : 3,
            "type" : "VEC3"
        },
        {
            "bufferView" : 5,
            "componentType" : 5123,
            "count" : 3,
            "type" : "SCALAR"
        }
    ],
    "bufferViews" : [
        {
            "buffer" : 0,
            "byteLength" : 1316532,
            "byteOffset" : 0
        },
        {
            "buffer" : 0,
            "byteLength" : 1316532,
            "byteOffset" : 1316532
        },
        {
            "buffer" : 0,
            "byteLength" : 442680,
            "byteOffset" : 2633064
        },
        {
            "buffer" : 0,
            "byteLength" : 36,
            "byteOffset" : 3075744
        },
        {
            "buffer" : 0,
            "byteLength" : 36,
            "byteOffset" : 3075780
        },
        {
            "buffer" : 0,
            "byteLength" : 6,
            "byteOffset" : 3075816
        }
    ],
    "buffers" : [
        {
            "byteLength" : 3075824,
            "uri" : "data:application/octet-stream;base64,"
        }
    ]
}
