{
    "asset" : {
        "generator" : "Khronos glTF Blender I/O v1.6.16",
        "version" : "2.0"
    },
    "scene" : 0,
    "scenes" : [
        {
            "name" : "Scene",
            "nodes" : [
                0,
                1,
                2,
                3,
                14
            ]
        }
    ],
    "nodes" : [
        {
            "mesh" : 0,
            "name" : "instance_0.003",
            "translation" : [
                -19.372129440307617,
                0,
                469.403076171875
            ]
        },
        {
            "mesh" : 1,
            "name" : "instance_0.004",
            "translation" : [
                -19.372129440307617,
                0,
                469.403076171875
            ]
        },
        {
            "mesh" : 2,
            "name" : "instance_0.005",
            "translation" : [
                -19.372129440307617,
                0,
                469.403076171875
            ]
        },
        {
            "mesh" : 3,
            "name" : "instance_0.006",
            "translation" : [
                -19.372129440307617,
                0,
                469.403076171875
            ]
        },
        {
            "mesh" : 4,
            "name" : "instance_0",
            "translation" : [
                265.57489013671875,
                0,
                -185.51919555664062
            ]
        },
        {
            "mesh" : 5,
            "name" : "instance_0.002",
            "translation" : [
                265.57489013671875,
                0,
                -185.51919555664062
            ]
        },
        {
            "mesh" : 6,
            "name" : "instance_0.007",
            "translation" : [
                265.57489013671875,
                0,
                -185.51919555664062
            ]
        },
        {
            "mesh" : 7,
            "name" : "instance_0.008",
            "translation" : [
                265.57489013671875,
                0,
                -185.51919555664062
            ]
        },
        {
            "mesh" : 8,
            "name" : "instance_0.009",
            "translation" : [
                265.57489013671875,
                0,
                -185.51919555664062
            ]
        },
        {
            "mesh" : 9,
            "name" : "instance_0.010",
            "translation" : [
                265.57489013671875,
                0,
                -185.51919555664062
            ]
        },
        {
            "mesh" : 10,
            "name" : "instance_0.011",
            "translation" : [
                265.57489013671875,
                0,
                -185.51919555664062
            ]
        },
        {
            "mesh" : 11,
            "name" : "instance_0.012",
            "translation" : [
                265.57489013671875,
                0,
                -185.51919555664062
            ]
        },
        {
            "mesh" : 12,
            "name" : "instance_0.013",
            "translation" : [
                265.57489013671875,
                0,
                -185.51919555664062
            ]
        },
        {
            "mesh" : 13,
            "name" : "instance_0.014",
            "translation" : [
                265.57489013671875,
                0,
                -185.51919555664062
            ]
        },
        {
            "children" : [
                4,
                5,
                6,
                7,
                8,
                9,
                10,
                11,
                12,
                13
            ],
            "name" : "SketchUp",
            "scale" : [
                0.02539999969303608,
                0.02539999969303608,
                0.02539999969303608
            ]
        }
    ],
    "materials" : [
        {
            "doubleSided" : true,
            "name" : "Color_M00.003",
            "pbrMetallicRoughness" : {
                "metallicFactor" : 0,
                "roughnessFactor" : 0.5
            }
        },
        {
            "doubleSided" : true,
            "name" : "Color_M00.005",
            "pbrMetallicRoughness" : {
                "metallicFactor" : 0,
                "roughnessFactor" : 0.5
            }
        }
    ],
    "meshes" : [
        {
            "name" : "ID27.001",
            "primitives" : [
                {
                    "attributes" : {
                        "POSITION" : 0,
                        "NORMAL" : 1
                    },
                    "indices" : 2,
                    "material" : 0
                }
            ]
        },
        {
            "name" : "ID33.001",
            "primitives" : [
                {
                    "attributes" : {
                        "POSITION" : 3,
                        "NORMAL" : 4
                    },
                    "indices" : 5,
                    "material" : 0
                }
            ]
        },
        {
            "name" : "ID39.002",
            "primitives" : [
                {
                    "attributes" : {
                        "POSITION" : 6,
                        "NORMAL" : 7
                    },
                    "indices" : 2,
                    "material" : 0
                }
            ]
        },
        {
            "name" : "ID45.001",
            "primitives" : [
                {
                    "attributes" : {
                        "POSITION" : 8,
                        "NORMAL" : 9
                    },
                    "indices" : 2,
                    "material" : 0
                }
            ]
        },
        {
            "name" : "ID5.004",
            "primitives" : [
                {
                    "attributes" : {
                        "POSITION" : 10,
                        "NORMAL" : 11
                    },
                    "indices" : 12,
                    "material" : 1
                }
            ]
        },
        {
            "name" : "ID21.002",
            "primitives" : [
                {
                    "attributes" : {
                        "POSITION" : 13,
                        "NORMAL" : 14
                    },
                    "indices" : 2,
                    "material" : 1
                }
            ]
        },
        {
            "name" : "ID27.002",
            "primitives" : [
                {
                    "attributes" : {
                        "POSITION" : 15,
                        "NORMAL" : 16
                    },
                    "indices" : 2,
                    "material" : 1
                }
            ]
        },
        {
            "name" : "ID33.002",
            "primitives" : [
                {
                    "attributes" : {
                        "POSITION" : 17,
                        "NORMAL" : 18
                    },
                    "indices" : 2,
                    "material" : 1
                }
            ]
        },
        {
            "name" : "ID39.003",
            "primitives" : [
                {
                    "attributes" : {
                        "POSITION" : 19,
                        "NORMAL" : 20
                    },
                    "indices" : 2,
                    "material" : 1
                }
            ]
        },
        {
            "name" : "ID45.002",
            "primitives" : [
                {
                    "attributes" : {
                        "POSITION" : 21,
                        "NORMAL" : 22
                    },
                    "indices" : 2,
                    "material" : 1
                }
            ]
        },
        {
            "name" : "ID51.003",
            "primitives" : [
                {
                    "attributes" : {
                        "POSITION" : 23,
                        "NORMAL" : 24
                    },
                    "indices" : 2,
                    "material" : 1
                }
            ]
        },
        {
            "name" : "ID57.002",
            "primitives" : [
                {
                    "attributes" : {
                        "POSITION" : 25,
                        "NORMAL" : 26
                    },
                    "indices" : 2,
                    "material" : 1
                }
            ]
        },
        {
            "name" : "ID63.002",
            "primitives" : [
                {
                    "attributes" : {
                        "POSITION" : 27,
                        "NORMAL" : 28
                    },
                    "indices" : 2,
                    "material" : 1
                }
            ]
        },
        {
            "name" : "ID69.002",
            "primitives" : [
                {
                    "attributes" : {
                        "POSITION" : 29,
                        "NORMAL" : 30
                    },
                    "indices" : 2,
                    "material" : 1
                }
            ]
        }
    ],
    "accessors" : [
        {
            "bufferView" : 0,
            "componentType" : 5126,
            "count" : 3,
            "max" : [
                237.27220153808594,
                45.43701934814453,
                628.1251831054688
            ],
            "min" : [
                237.27220153808594,
                45.43385696411133,
                595.6192626953125
            ],
            "type" : "VEC3"
        },
        {
            "bufferView" : 1,
            "componentType" : 5126,
            "count" : 3,
            "type" : "VEC3"
        },
        {
            "bufferView" : 2,
            "componentType" : 5123,
            "count" : 3,
            "type" : "SCALAR"
        },
        {
            "bufferView" : 3,
            "componentType" : 5126,
            "count" : 6,
            "max" : [
                953.0918579101562,
                48.608558654785156,
                -330.7966003417969
            ],
            "min" : [
                953.0918579101562,
                48.60823059082031,
                -525.8314819335938
            ],
            "type" : "VEC3"
        },
        {
            "bufferView" : 4,
            "componentType" : 5126,
            "count" : 6,
            "type" : "VEC3"
        },
        {
            "bufferView" : 5,
            "componentType" : 5123,
            "count" : 6,
            "type" : "SCALAR"
        },
        {
            "bufferView" : 6,
            "componentType" : 5126,
            "count" : 3,
            "max" : [
                806.674072265625,
                46.49789810180664,
                530.6074829101562
            ],
            "min" : [
                806.674072265625,
                46.4941291809082,
                498.1015930175781
            ],
            "type" : "VEC3"
        },
        {
            "bufferView" : 7,
            "componentType" : 5126,
            "count" : 3,
            "type" : "VEC3"
        },
        {
            "bufferView" : 8,
            "componentType" : 5126,
            "count" : 3,
            "max" : [
                -446.01019287109375,
                44.37982940673828,
                -119.50869750976562
            ],
            "min" : [
                -446.01019287109375,
                44.37607955932617,
                -152.0146026611328
            ],
            "type" : "VEC3"
        },
        {
            "bufferView" : 9,
            "componentType" : 5126,
            "count" : 3,
            "type" : "VEC3"
        },
        {
            "bufferView" : 10,
            "componentType" : 5126,
            "count" : 108471,
            "max" : [
                1004.7420654296875,
                47.62253952026367,
                1079.4080810546875
            ],
            "min" : [
                -1077.6690673828125,
                5.230371952056885,
                -610.9346923828125
            ],
            "type" : "VEC3"
        },
        {
            "bufferView" : 11,
            "componentType" : 5126,
            "count" : 108471,
            "type" : "VEC3"
        },
        {
            "bufferView" : 12,
            "componentType" : 5125,
            "count" : 109200,
            "type" : "SCALAR"
        },
        {
            "bufferView" : 13,
            "componentType" : 5126,
            "count" : 3,
            "max" : [
                272.654296875,
                12.759439468383789,
                -432.1528015136719
            ],
            "min" : [
                272.654296875,
                12.75719928741455,
                -464.65869140625
            ],
            "type" : "VEC3"
        },
        {
            "bufferView" : 14,
            "componentType" : 5126,
            "count" : 3,
            "type" : "VEC3"
        },
        {
            "bufferView" : 15,
            "componentType" : 5126,
            "count" : 3,
            "max" : [
                -378.0907897949219,
                8.529791831970215,
                185.45770263671875
            ],
            "min" : [
                -378.0907897949219,
                8.52879810333252,
                152.95188903808594
            ],
            "type" : "VEC3"
        },
        {
            "bufferView" : 16,
            "componentType" : 5126,
            "count" : 3,
            "type" : "VEC3"
        },
        {
            "bufferView" : 17,
            "componentType" : 5126,
            "count" : 3,
            "max" : [
                -963.7881469726562,
                38.44322967529297,
                608.0731811523438
            ],
            "min" : [
                -963.7881469726562,
                38.44173049926758,
                575.5676879882812
            ],
            "type" : "VEC3"
        },
        {
            "bufferView" : 18,
            "componentType" : 5126,
            "count" : 3,
            "type" : "VEC3"
        },
        {
            "bufferView" : 19,
            "componentType" : 5126,
            "count" : 3,
            "max" : [
                -264.2371826171875,
                39.498779296875,
                6.715699672698975
            ],
            "min" : [
                -264.2371826171875,
                39.4952278137207,
                -25.79010009765625
            ],
            "type" : "VEC3"
        },
        {
            "bufferView" : 20,
            "componentType" : 5126,
            "count" : 3,
            "type" : "VEC3"
        },
        {
            "bufferView" : 21,
            "componentType" : 5126,
            "count" : 3,
            "max" : [
                -231.69989013671875,
                38.44158935546875,
                -480.8716735839844
            ],
            "min" : [
                -264.2371826171875,
                38.439449310302734,
                -480.8716735839844
            ],
            "type" : "VEC3"
        },
        {
            "bufferView" : 22,
            "componentType" : 5126,
            "count" : 3,
            "type" : "VEC3"
        },
        {
            "bufferView" : 23,
            "componentType" : 5126,
            "count" : 3,
            "max" : [
                217.9001007080078,
                45.43701934814453,
                1097.528076171875
            ],
            "min" : [
                217.9001007080078,
                45.43385696411133,
                1065.0220947265625
            ],
            "type" : "VEC3"
        },
        {
            "bufferView" : 24,
            "componentType" : 5126,
            "count" : 3,
            "type" : "VEC3"
        },
        {
            "bufferView" : 25,
            "componentType" : 5126,
            "count" : 3,
            "max" : [
                787.3020629882812,
                46.49789810180664,
                1000.0110473632812
            ],
            "min" : [
                787.3020629882812,
                46.4941291809082,
                967.5046997070312
            ],
            "type" : "VEC3"
        },
        {
            "bufferView" : 26,
            "componentType" : 5126,
            "count" : 3,
            "type" : "VEC3"
        },
        {
            "bufferView" : 27,
            "componentType" : 5126,
            "count" : 3,
            "max" : [
                -465.3822937011719,
                44.37982940673828,
                349.8943786621094
            ],
            "min" : [
                -465.3822937011719,
                44.37607955932617,
                317.38848876953125
            ],
            "type" : "VEC3"
        },
        {
            "bufferView" : 28,
            "componentType" : 5126,
            "count" : 3,
            "type" : "VEC3"
        },
        {
            "bufferView" : 29,
            "componentType" : 5126,
            "count" : 3,
            "max" : [
                321.4333801269531,
                38.441650390625,
                -25.79010009765625
            ],
            "min" : [
                321.4333801269531,
                38.43845748901367,
                -58.295928955078125
            ],
            "type" : "VEC3"
        },
        {
            "bufferView" : 30,
            "componentType" : 5126,
            "count" : 3,
            "type" : "VEC3"
        }
    ],
    "bufferViews" : [
        {
            "buffer" : 0,
            "byteLength" : 36,
            "byteOffset" : 0
        },
        {
            "buffer" : 0,
            "byteLength" : 36,
            "byteOffset" : 36
        },
        {
            "buffer" : 0,
            "byteLength" : 6,
            "byteOffset" : 72
        },
        {
            "buffer" : 0,
            "byteLength" : 72,
            "byteOffset" : 80
        },
        {
            "buffer" : 0,
            "byteLength" : 72,
            "byteOffset" : 152
        },
        {
            "buffer" : 0,
            "byteLength" : 12,
            "byteOffset" : 224
        },
        {
            "buffer" : 0,
            "byteLength" : 36,
            "byteOffset" : 236
        },
        {
            "buffer" : 0,
            "byteLength" : 36,
            "byteOffset" : 272
        },
        {
            "buffer" : 0,
            "byteLength" : 36,
            "byteOffset" : 308
        },
        {
            "buffer" : 0,
            "byteLength" : 36,
            "byteOffset" : 344
        },
        {
            "buffer" : 0,
            "byteLength" : 1301652,
            "byteOffset" : 380
        },
        {
            "buffer" : 0,
            "byteLength" : 1301652,
            "byteOffset" : 1302032
        },
        {
            "buffer" : 0,
            "byteLength" : 436800,
            "byteOffset" : 2603684
        },
        {
            "buffer" : 0,
            "byteLength" : 36,
            "byteOffset" : 3040484
        },
        {
            "buffer" : 0,
            "byteLength" : 36,
            "byteOffset" : 3040520
        },
        {
            "buffer" : 0,
            "byteLength" : 36,
            "byteOffset" : 3040556
        },
        {
            "buffer" : 0,
            "byteLength" : 36,
            "byteOffset" : 3040592
        },
        {
            "buffer" : 0,
            "byteLength" : 36,
            "byteOffset" : 3040628
        },
        {
            "buffer" : 0,
            "byteLength" : 36,
            "byteOffset" : 3040664
        },
        {
            "buffer" : 0,
            "byteLength" : 36,
            "byteOffset" : 3040700
        },
        {
            "buffer" : 0,
            "byteLength" : 36,
            "byteOffset" : 3040736
        },
        {
            "buffer" : 0,
            "byteLength" : 36,
            "byteOffset" : 3040772
        },
        {
            "buffer" : 0,
            "byteLength" : 36,
            "byteOffset" : 3040808
        },
        {
            "buffer" : 0,
            "byteLength" : 36,
            "byteOffset" : 3040844
        },
        {
            "buffer" : 0,
            "byteLength" : 36,
            "byteOffset" : 3040880
        },
        {
            "buffer" : 0,
            "byteLength" : 36,
            "byteOffset" : 3040916
        },
        {
            "buffer" : 0,
            "byteLength" : 36,
            "byteOffset" : 3040952
        },
        {
            "buffer" : 0,
            "byteLength" : 36,
            "byteOffset" : 3040988
        },
        {
            "buffer" : 0,
            "byteLength" : 36,
            "byteOffset" : 3041024
        },
        {
            "buffer" : 0,
            "byteLength" : 36,
            "byteOffset" : 3041060
        },
        {
            "buffer" : 0,
            "byteLength" : 36,
            "byteOffset" : 3041096
        }
    ],
    "buffers" : [
        {
            "byteLength" : 3041132,
            "uri" : "data:application/octet-stream;base64,"
        }
    ]
}
