{
    "asset" : {
        "generator" : "Khronos glTF Blender I/O v1.6.16",
        "version" : "2.0"
    },
    "scene" : 0,
    "scenes" : [
        {
            "name" : "Scene",
            "nodes" : [
                6
            ]
        }
    ],
    "nodes" : [
        {
            "mesh" : 0,
            "name" : "instance_0",
            "translation" : [
                -13.870499610900879,
                0,
                127.19800567626953
            ]
        },
        {
            "mesh" : 1,
            "name" : "instance_0.001",
            "translation" : [
                -13.870499610900879,
                0,
                127.19800567626953
            ]
        },
        {
            "mesh" : 2,
            "name" : "instance_0.002",
            "translation" : [
                -13.870499610900879,
                0,
                127.19800567626953
            ]
        },
        {
            "mesh" : 3,
            "name" : "instance_0.003",
            "translation" : [
                -13.870499610900879,
                0,
                127.19800567626953
            ]
        },
        {
            "mesh" : 4,
            "name" : "instance_0.004",
            "translation" : [
                -13.870499610900879,
                0,
                127.19800567626953
            ]
        },
        {
            "mesh" : 5,
            "name" : "instance_0.005",
            "translation" : [
                -13.870499610900879,
                0,
                127.19800567626953
            ]
        },
        {
            "children" : [
                0,
                1,
                2,
                3,
                4,
                5
            ],
            "name" : "SketchUp",
            "scale" : [
                0.02539999969303608,
                0.02539999969303608,
                0.02539999969303608
            ]
        }
    ],
    "materials" : [
        {
            "doubleSided" : true,
            "name" : "Color_M00.001",
            "pbrMetallicRoughness" : {
                "metallicFactor" : 0,
                "roughnessFactor" : 0.5
            }
        },
        {
            "doubleSided" : true,
            "name" : "material",
            "pbrMetallicRoughness" : {
                "metallicFactor" : 0,
                "roughnessFactor" : 0.5
            }
        }
    ],
    "meshes" : [
        {
            "name" : "ID5.001",
            "primitives" : [
                {
                    "attributes" : {
                        "POSITION" : 0,
                        "NORMAL" : 1
                    },
                    "indices" : 2,
                    "material" : 0
                },
                {
                    "attributes" : {
                        "POSITION" : 3,
                        "NORMAL" : 4
                    },
                    "indices" : 5,
                    "material" : 1
                }
            ]
        },
        {
            "name" : "ID15",
            "primitives" : [
                {
                    "attributes" : {
                        "POSITION" : 6,
                        "NORMAL" : 7
                    },
                    "indices" : 8,
                    "material" : 0
                }
            ]
        },
        {
            "name" : "ID21",
            "primitives" : [
                {
                    "attributes" : {
                        "POSITION" : 9,
                        "NORMAL" : 10
                    },
                    "indices" : 8,
                    "material" : 0
                }
            ]
        },
        {
            "name" : "ID27",
            "primitives" : [
                {
                    "attributes" : {
                        "POSITION" : 11,
                        "NORMAL" : 12
                    },
                    "indices" : 8,
                    "material" : 0
                }
            ]
        },
        {
            "name" : "ID33",
            "primitives" : [
                {
                    "attributes" : {
                        "POSITION" : 13,
                        "NORMAL" : 14
                    },
                    "indices" : 8,
                    "material" : 0
                }
            ]
        },
        {
            "name" : "ID39",
            "primitives" : [
                {
                    "attributes" : {
                        "POSITION" : 15,
                        "NORMAL" : 16
                    },
                    "indices" : 17,
                    "material" : 1
                }
            ]
        }
    ],
    "accessors" : [
        {
            "bufferView" : 0,
            "componentType" : 5126,
            "count" : 95600,
            "max" : [
                1041.194091796875,
                75.81656646728516,
                1048.3980712890625
            ],
            "min" : [
                -1041.1920166015625,
                26.416179656982422,
                -1048.3131103515625
            ],
            "type" : "VEC3"
        },
        {
            "bufferView" : 1,
            "componentType" : 5126,
            "count" : 95600,
            "type" : "VEC3"
        },
        {
            "bufferView" : 2,
            "componentType" : 5125,
            "count" : 96588,
            "type" : "SCALAR"
        },
        {
            "bufferView" : 3,
            "componentType" : 5126,
            "count" : 6,
            "max" : [
                -65.07209014892578,
                59.3513069152832,
                1048.3980712890625
            ],
            "min" : [
                -97.61177062988281,
                29.998859405517578,
                1048.3131103515625
            ],
            "type" : "VEC3"
        },
        {
            "bufferView" : 4,
            "componentType" : 5126,
            "count" : 6,
            "type" : "VEC3"
        },
        {
            "bufferView" : 5,
            "componentType" : 5123,
            "count" : 6,
            "type" : "SCALAR"
        },
        {
            "bufferView" : 6,
            "componentType" : 5126,
            "count" : 3,
            "max" : [
                -227.75830078125,
                63.25274658203125,
                690.8338012695312
            ],
            "min" : [
                -227.75830078125,
                63.251346588134766,
                658.327880859375
            ],
            "type" : "VEC3"
        },
        {
            "bufferView" : 7,
            "componentType" : 5126,
            "count" : 3,
            "type" : "VEC3"
        },
        {
            "bufferView" : 8,
            "componentType" : 5123,
            "count" : 3,
            "type" : "SCALAR"
        },
        {
            "bufferView" : 9,
            "componentType" : 5126,
            "count" : 3,
            "max" : [
                878.50830078125,
                65.36640930175781,
                447.04010009765625
            ],
            "min" : [
                878.50830078125,
                65.36254119873047,
                414.5341796875
            ],
            "type" : "VEC3"
        },
        {
            "bufferView" : 10,
            "componentType" : 5126,
            "count" : 3,
            "type" : "VEC3"
        },
        {
            "bufferView" : 11,
            "componentType" : 5126,
            "count" : 3,
            "max" : [
                -1008.6520385742188,
                65.36914825439453,
                56.97023010253906
            ],
            "min" : [
                -1008.6520385742188,
                65.36634826660156,
                24.46442985534668
            ],
            "type" : "VEC3"
        },
        {
            "bufferView" : 12,
            "componentType" : 5126,
            "count" : 3,
            "type" : "VEC3"
        },
        {
            "bufferView" : 13,
            "componentType" : 5126,
            "count" : 3,
            "max" : [
                -16.26620864868164,
                66.42570495605469,
                -73.05303955078125
            ],
            "min" : [
                -16.26620864868164,
                66.4234619140625,
                -105.55889892578125
            ],
            "type" : "VEC3"
        },
        {
            "bufferView" : 14,
            "componentType" : 5126,
            "count" : 3,
            "type" : "VEC3"
        },
        {
            "bufferView" : 15,
            "componentType" : 5126,
            "count" : 9,
            "max" : [
                -65.07209014892578,
                66.5372314453125,
                1048.3980712890625
            ],
            "min" : [
                -97.61177062988281,
                34.219688415527344,
                1032.14501953125
            ],
            "type" : "VEC3"
        },
        {
            "bufferView" : 16,
            "componentType" : 5126,
            "count" : 9,
            "type" : "VEC3"
        },
        {
            "bufferView" : 17,
            "componentType" : 5123,
            "count" : 9,
            "type" : "SCALAR"
        }
    ],
    "bufferViews" : [
        {
            "buffer" : 0,
            "byteLength" : 1147200,
            "byteOffset" : 0
        },
        {
            "buffer" : 0,
            "byteLength" : 1147200,
            "byteOffset" : 1147200
        },
        {
            "buffer" : 0,
            "byteLength" : 386352,
            "byteOffset" : 2294400
        },
        {
            "buffer" : 0,
            "byteLength" : 72,
            "byteOffset" : 2680752
        },
        {
            "buffer" : 0,
            "byteLength" : 72,
            "byteOffset" : 2680824
        },
        {
            "buffer" : 0,
            "byteLength" : 12,
            "byteOffset" : 2680896
        },
        {
            "buffer" : 0,
            "byteLength" : 36,
            "byteOffset" : 2680908
        },
        {
            "buffer" : 0,
            "byteLength" : 36,
            "byteOffset" : 2680944
        },
        {
            "buffer" : 0,
            "byteLength" : 6,
            "byteOffset" : 2680980
        },
        {
            "buffer" : 0,
            "byteLength" : 36,
            "byteOffset" : 2680988
        },
        {
            "buffer" : 0,
            "byteLength" : 36,
            "byteOffset" : 2681024
        },
        {
            "buffer" : 0,
            "byteLength" : 36,
            "byteOffset" : 2681060
        },
        {
            "buffer" : 0,
            "byteLength" : 36,
            "byteOffset" : 2681096
        },
        {
            "buffer" : 0,
            "byteLength" : 36,
            "byteOffset" : 2681132
        },
        {
            "buffer" : 0,
            "byteLength" : 36,
            "byteOffset" : 2681168
        },
        {
            "buffer" : 0,
            "byteLength" : 108,
            "byteOffset" : 2681204
        },
        {
            "buffer" : 0,
            "byteLength" : 108,
            "byteOffset" : 2681312
        },
        {
            "buffer" : 0,
            "byteLength" : 18,
            "byteOffset" : 2681420
        }
    ],
    "buffers" : [
        {
            "byteLength" : 2681440,
            "uri" : "data:application/octet-stream;base64,"
        }
    ]
}
