{
    "asset" : {
        "generator" : "Khronos glTF Blender I/O v1.6.16",
        "version" : "2.0"
    },
    "scene" : 0,
    "scenes" : [
        {
            "name" : "Scene",
            "nodes" : [
                1
            ]
        }
    ],
    "nodes" : [
        {
            "mesh" : 0,
            "name" : "instance_2",
            "translation" : [
                425.5127868652344,
                0,
                -46.528419494628906
            ]
        },
        {
            "children" : [
                0
            ],
            "name" : "SketchUp",
            "scale" : [
                0.02539999969303608,
                0.02539999969303608,
                0.02539999969303608
            ]
        }
    ],
    "materials" : [
        {
            "doubleSided" : true,
            "name" : "Color_M00.005",
            "pbrMetallicRoughness" : {
                "metallicFactor" : 0,
                "roughnessFactor" : 0.5
            }
        },
        {
            "doubleSided" : true,
            "name" : "__auto_.002",
            "pbrMetallicRoughness" : {
                "baseColorFactor" : [
                    0.250980406999588,
                    0.250980406999588,
                    0.250980406999588,
                    1
                ],
                "metallicFactor" : 0,
                "roughnessFactor" : 0.5
            }
        }
    ],
    "meshes" : [
        {
            "name" : "ID9.001",
            "primitives" : [
                {
                    "attributes" : {
                        "POSITION" : 0,
                        "NORMAL" : 1
                    },
                    "indices" : 2,
                    "material" : 0
                },
                {
                    "attributes" : {
                        "POSITION" : 3,
                        "NORMAL" : 4
                    },
                    "indices" : 5,
                    "material" : 1
                }
            ]
        }
    ],
    "accessors" : [
        {
            "bufferView" : 0,
            "componentType" : 5126,
            "count" : 97027,
            "max" : [
                65.08843231201172,
                75.33100891113281,
                1048.3330078125
            ],
            "min" : [
                -1041.1920166015625,
                13.28339958190918,
                -1048.3131103515625
            ],
            "type" : "VEC3"
        },
        {
            "bufferView" : 1,
            "componentType" : 5126,
            "count" : 97027,
            "type" : "VEC3"
        },
        {
            "bufferView" : 2,
            "componentType" : 5125,
            "count" : 98838,
            "type" : "SCALAR"
        },
        {
            "bufferView" : 3,
            "componentType" : 5126,
            "count" : 2599,
            "max" : [
                65.08843231201172,
                75.31990814208984,
                950.8153686523438
            ],
            "min" : [
                -1024.9241943359375,
                38.128173828125,
                -1032.06005859375
            ],
            "type" : "VEC3"
        },
        {
            "bufferView" : 4,
            "componentType" : 5126,
            "count" : 2599,
            "type" : "VEC3"
        },
        {
            "bufferView" : 5,
            "componentType" : 5123,
            "count" : 2637,
            "type" : "SCALAR"
        }
    ],
    "bufferViews" : [
        {
            "buffer" : 0,
            "byteLength" : 1164324,
            "byteOffset" : 0
        },
        {
            "buffer" : 0,
            "byteLength" : 1164324,
            "byteOffset" : 1164324
        },
        {
            "buffer" : 0,
            "byteLength" : 395352,
            "byteOffset" : 2328648
        },
        {
            "buffer" : 0,
            "byteLength" : 31188,
            "byteOffset" : 2724000
        },
        {
            "buffer" : 0,
            "byteLength" : 31188,
            "byteOffset" : 2755188
        },
        {
            "buffer" : 0,
            "byteLength" : 5274,
            "byteOffset" : 2786376
        }
    ],
    "buffers" : [
        {
            "byteLength" : 2791652,
            "uri" : "data:application/octet-stream;base64,"
        }
    ]
}
