{
    "asset" : {
        "generator" : "Khronos glTF Blender I/O v1.6.16",
        "version" : "2.0"
    },
    "scene" : 0,
    "scenes" : [
        {
            "name" : "Scene",
            "nodes" : [
                1
            ]
        }
    ],
    "nodes" : [
        {
            "mesh" : 0,
            "name" : "instance_2",
            "translation" : [
                -574.2522583007812,
                0,
                -267.8263854980469
            ]
        },
        {
            "children" : [
                0
            ],
            "name" : "SketchUp",
            "scale" : [
                0.02539999969303608,
                0.02539999969303608,
                0.02539999969303608
            ]
        }
    ],
    "materials" : [
        {
            "doubleSided" : true,
            "name" : "Color_M00.004",
            "pbrMetallicRoughness" : {
                "metallicFactor" : 0,
                "roughnessFactor" : 0.5
            }
        },
        {
            "doubleSided" : true,
            "name" : "__auto_.001",
            "pbrMetallicRoughness" : {
                "baseColorFactor" : [
                    0.250980406999588,
                    0.250980406999588,
                    0.250980406999588,
                    1
                ],
                "metallicFactor" : 0,
                "roughnessFactor" : 0.5
            }
        }
    ],
    "meshes" : [
        {
            "name" : "ID9",
            "primitives" : [
                {
                    "attributes" : {
                        "POSITION" : 0,
                        "NORMAL" : 1
                    },
                    "indices" : 2,
                    "material" : 0
                },
                {
                    "attributes" : {
                        "POSITION" : 3,
                        "NORMAL" : 4
                    },
                    "indices" : 5,
                    "material" : 1
                }
            ]
        }
    ],
    "accessors" : [
        {
            "bufferView" : 0,
            "componentType" : 5126,
            "count" : 81435,
            "max" : [
                1041.196044921875,
                74.7490463256836,
                1048.3131103515625
            ],
            "min" : [
                -32.53725814819336,
                33.85470962524414,
                -1048.3399658203125
            ],
            "type" : "VEC3"
        },
        {
            "bufferView" : 1,
            "componentType" : 5126,
            "count" : 81435,
            "type" : "VEC3"
        },
        {
            "bufferView" : 2,
            "componentType" : 5125,
            "count" : 82737,
            "type" : "SCALAR"
        },
        {
            "bufferView" : 3,
            "componentType" : 5126,
            "count" : 3,
            "max" : [
                634.4799194335938,
                70.06504821777344,
                -511.99456787109375
            ],
            "min" : [
                618.2111206054688,
                70.06504821777344,
                -528.2474365234375
            ],
            "type" : "VEC3"
        },
        {
            "bufferView" : 4,
            "componentType" : 5126,
            "count" : 3,
            "type" : "VEC3"
        },
        {
            "bufferView" : 5,
            "componentType" : 5123,
            "count" : 3,
            "type" : "SCALAR"
        }
    ],
    "bufferViews" : [
        {
            "buffer" : 0,
            "byteLength" : 977220,
            "byteOffset" : 0
        },
        {
            "buffer" : 0,
            "byteLength" : 977220,
            "byteOffset" : 977220
        },
        {
            "buffer" : 0,
            "byteLength" : 330948,
            "byteOffset" : 1954440
        },
        {
            "buffer" : 0,
            "byteLength" : 36,
            "byteOffset" : 2285388
        },
        {
            "buffer" : 0,
            "byteLength" : 36,
            "byteOffset" : 2285424
        },
        {
            "buffer" : 0,
            "byteLength" : 6,
            "byteOffset" : 2285460
        }
    ],
    "buffers" : [
        {
            "byteLength" : 2285468,
            "uri" : "data:application/octet-stream;base64,"
        }
    ]
}
