{
    "asset" : {
        "generator" : "Khronos glTF Blender I/O v1.6.16",
        "version" : "2.0"
    },
    "scene" : 0,
    "scenes" : [
        {
            "name" : "Scene",
            "nodes" : [
                1
            ]
        }
    ],
    "nodes" : [
        {
            "mesh" : 0,
            "name" : "instance_0",
            "translation" : [
                -176.09849548339844,
                0,
                539.0370483398438
            ]
        },
        {
            "children" : [
                0
            ],
            "name" : "SketchUp",
            "scale" : [
                0.02539999969303608,
                0.02539999969303608,
                0.02539999969303608
            ]
        }
    ],
    "materials" : [
        {
            "doubleSided" : true,
            "name" : "Color_M00.001",
            "pbrMetallicRoughness" : {
                "metallicFactor" : 0,
                "roughnessFactor" : 0.5
            }
        }
    ],
    "meshes" : [
        {
            "name" : "ID5.001",
            "primitives" : [
                {
                    "attributes" : {
                        "POSITION" : 0,
                        "NORMAL" : 1
                    },
                    "indices" : 2,
                    "material" : 0
                }
            ]
        }
    ],
    "accessors" : [
        {
            "bufferView" : 0,
            "componentType" : 5126,
            "count" : 35259,
            "max" : [
                1041.1920166015625,
                43.2529182434082,
                24.397418975830078
            ],
            "min" : [
                -1041.2099609375,
                -2.1602020263671875,
                -1048.3131103515625
            ],
            "type" : "VEC3"
        },
        {
            "bufferView" : 1,
            "componentType" : 5126,
            "count" : 35259,
            "type" : "VEC3"
        },
        {
            "bufferView" : 2,
            "componentType" : 5123,
            "count" : 35658,
            "type" : "SCALAR"
        }
    ],
    "bufferViews" : [
        {
            "buffer" : 0,
            "byteLength" : 423108,
            "byteOffset" : 0
        },
        {
            "buffer" : 0,
            "byteLength" : 423108,
            "byteOffset" : 423108
        },
        {
            "buffer" : 0,
            "byteLength" : 71316,
            "byteOffset" : 846216
        }
    ],
    "buffers" : [
        {
            "byteLength" : 917532,
            "uri" : "data:application/octet-stream;base64,"
        }
    ]
}
