{
    "asset" : {
        "generator" : "Khronos glTF Blender I/O v1.6.16",
        "version" : "2.0"
    },
    "scene" : 0,
    "scenes" : [
        {
            "name" : "Scene",
            "nodes" : [
                1
            ]
        }
    ],
    "nodes" : [
        {
            "mesh" : 0,
            "name" : "instance_2",
            "translation" : [
                -250.54869079589844,
                0,
                -156.9698944091797
            ]
        },
        {
            "children" : [
                0
            ],
            "name" : "SketchUp",
            "scale" : [
                0.02539999969303608,
                0.02539999969303608,
                0.02539999969303608
            ]
        }
    ],
    "materials" : [
        {
            "doubleSided" : true,
            "name" : "Color_M00.013",
            "pbrMetallicRoughness" : {
                "metallicFactor" : 0,
                "roughnessFactor" : 0.5
            }
        }
    ],
    "meshes" : [
        {
            "name" : "ID9.009",
            "primitives" : [
                {
                    "attributes" : {
                        "POSITION" : 0,
                        "NORMAL" : 1
                    },
                    "indices" : 2,
                    "material" : 0
                }
            ]
        }
    ],
    "accessors" : [
        {
            "bufferView" : 0,
            "componentType" : 5126,
            "count" : 87307,
            "max" : [
                1041.1920166015625,
                66.27315521240234,
                1048.3270263671875
            ],
            "min" : [
                -48.830039978027344,
                8.5286865234375,
                -1048.3131103515625
            ],
            "type" : "VEC3"
        },
        {
            "bufferView" : 1,
            "componentType" : 5126,
            "count" : 87307,
            "type" : "VEC3"
        },
        {
            "bufferView" : 2,
            "componentType" : 5125,
            "count" : 87723,
            "type" : "SCALAR"
        }
    ],
    "bufferViews" : [
        {
            "buffer" : 0,
            "byteLength" : 1047684,
            "byteOffset" : 0
        },
        {
            "buffer" : 0,
            "byteLength" : 1047684,
            "byteOffset" : 1047684
        },
        {
            "buffer" : 0,
            "byteLength" : 350892,
            "byteOffset" : 2095368
        }
    ],
    "buffers" : [
        {
            "byteLength" : 2446260,
            "uri" : "data:application/octet-stream;base64,"
        }
    ]
}
