{
    "asset" : {
        "generator" : "Khronos glTF Blender I/O v1.6.16",
        "version" : "2.0"
    },
    "scene" : 0,
    "scenes" : [
        {
            "name" : "Scene",
            "nodes" : [
                1
            ]
        }
    ],
    "nodes" : [
        {
            "mesh" : 0,
            "name" : "instance_0",
            "translation" : [
                443.5238952636719,
                0,
                54.04789733886719
            ]
        },
        {
            "children" : [
                0
            ],
            "name" : "SketchUp",
            "scale" : [
                0.02539999969303608,
                0.02539999969303608,
                0.02539999969303608
            ]
        }
    ],
    "materials" : [
        {
            "doubleSided" : true,
            "name" : "Color_M00.001",
            "pbrMetallicRoughness" : {
                "metallicFactor" : 0,
                "roughnessFactor" : 0.5
            }
        }
    ],
    "meshes" : [
        {
            "name" : "ID5.001",
            "primitives" : [
                {
                    "attributes" : {
                        "POSITION" : 0,
                        "NORMAL" : 1
                    },
                    "indices" : 2,
                    "material" : 0
                }
            ]
        }
    ],
    "accessors" : [
        {
            "bufferView" : 0,
            "componentType" : 5126,
            "count" : 108881,
            "max" : [
                390.4766845703125,
                77.52009582519531,
                1048.4720458984375
            ],
            "min" : [
                -1041.1920166015625,
                9.591257095336914,
                -1048.3131103515625
            ],
            "type" : "VEC3"
        },
        {
            "bufferView" : 1,
            "componentType" : 5126,
            "count" : 108881,
            "type" : "VEC3"
        },
        {
            "bufferView" : 2,
            "componentType" : 5125,
            "count" : 109389,
            "type" : "SCALAR"
        }
    ],
    "bufferViews" : [
        {
            "buffer" : 0,
            "byteLength" : 1306572,
            "byteOffset" : 0
        },
        {
            "buffer" : 0,
            "byteLength" : 1306572,
            "byteOffset" : 1306572
        },
        {
            "buffer" : 0,
            "byteLength" : 437556,
            "byteOffset" : 2613144
        }
    ],
    "buffers" : [
        {
            "byteLength" : 3050700,
            "uri" : "data:application/octet-stream;base64,"
        }
    ]
}
