{
    "asset" : {
        "generator" : "Khronos glTF Blender I/O v1.6.16",
        "version" : "2.0"
    },
    "scene" : 0,
    "scenes" : [
        {
            "name" : "Scene",
            "nodes" : [
                1
            ]
        }
    ],
    "nodes" : [
        {
            "mesh" : 0,
            "name" : "instance_1",
            "translation" : [
                -225.78810119628906,
                0,
                181.39610290527344
            ]
        },
        {
            "children" : [
                0
            ],
            "name" : "SketchUp",
            "scale" : [
                0.02539999969303608,
                0.02539999969303608,
                0.02539999969303608
            ]
        }
    ],
    "materials" : [
        {
            "doubleSided" : true,
            "name" : "Color_M00.009",
            "pbrMetallicRoughness" : {
                "metallicFactor" : 0,
                "roughnessFactor" : 0.5
            }
        }
    ],
    "meshes" : [
        {
            "name" : "ID7",
            "primitives" : [
                {
                    "attributes" : {
                        "POSITION" : 0,
                        "NORMAL" : 1
                    },
                    "indices" : 2,
                    "material" : 0
                }
            ]
        }
    ],
    "accessors" : [
        {
            "bufferView" : 0,
            "componentType" : 5126,
            "count" : 50813,
            "max" : [
                585.6704711914062,
                54.101558685302734,
                -186.9084930419922
            ],
            "min" : [
                -1041.2320556640625,
                6.118117809295654,
                -1048.35400390625
            ],
            "type" : "VEC3"
        },
        {
            "bufferView" : 1,
            "componentType" : 5126,
            "count" : 50813,
            "type" : "VEC3"
        },
        {
            "bufferView" : 2,
            "componentType" : 5123,
            "count" : 51006,
            "type" : "SCALAR"
        }
    ],
    "bufferViews" : [
        {
            "buffer" : 0,
            "byteLength" : 609756,
            "byteOffset" : 0
        },
        {
            "buffer" : 0,
            "byteLength" : 609756,
            "byteOffset" : 609756
        },
        {
            "buffer" : 0,
            "byteLength" : 102012,
            "byteOffset" : 1219512
        }
    ],
    "buffers" : [
        {
            "byteLength" : 1321524,
            "uri" : "data:application/octet-stream;base64,"
        }
    ]
}
