{
    "asset" : {
        "generator" : "Khronos glTF Blender I/O v1.6.16",
        "version" : "2.0"
    },
    "scene" : 0,
    "scenes" : [
        {
            "name" : "Scene",
            "nodes" : [
                1
            ]
        }
    ],
    "nodes" : [
        {
            "mesh" : 0,
            "name" : "instance_2",
            "translation" : [
                45.73991012573242,
                0,
                422.455078125
            ]
        },
        {
            "children" : [
                0
            ],
            "name" : "SketchUp",
            "scale" : [
                0.02539999969303608,
                0.02539999969303608,
                0.02539999969303608
            ]
        }
    ],
    "materials" : [
        {
            "doubleSided" : true,
            "name" : "Color_M00.011",
            "pbrMetallicRoughness" : {
                "metallicFactor" : 0,
                "roughnessFactor" : 0.5
            }
        }
    ],
    "meshes" : [
        {
            "name" : "ID9.001",
            "primitives" : [
                {
                    "attributes" : {
                        "POSITION" : 0,
                        "NORMAL" : 1
                    },
                    "indices" : 2,
                    "material" : 0
                }
            ]
        }
    ],
    "accessors" : [
        {
            "bufferView" : 0,
            "componentType" : 5126,
            "count" : 108699,
            "max" : [
                1041.1920166015625,
                81.68364715576172,
                219.41419982910156
            ],
            "min" : [
                -1041.2139892578125,
                25.44264030456543,
                -1048.3460693359375
            ],
            "type" : "VEC3"
        },
        {
            "bufferView" : 1,
            "componentType" : 5126,
            "count" : 108699,
            "type" : "VEC3"
        },
        {
            "bufferView" : 2,
            "componentType" : 5125,
            "count" : 109050,
            "type" : "SCALAR"
        }
    ],
    "bufferViews" : [
        {
            "buffer" : 0,
            "byteLength" : 1304388,
            "byteOffset" : 0
        },
        {
            "buffer" : 0,
            "byteLength" : 1304388,
            "byteOffset" : 1304388
        },
        {
            "buffer" : 0,
            "byteLength" : 436200,
            "byteOffset" : 2608776
        }
    ],
    "buffers" : [
        {
            "byteLength" : 3044976,
            "uri" : "data:application/octet-stream;base64,"
        }
    ]
}
