{
    "asset" : {
        "generator" : "Khronos glTF Blender I/O v1.6.16",
        "version" : "2.0"
    },
    "scene" : 0,
    "scenes" : [
        {
            "name" : "Scene",
            "nodes" : [
                1
            ]
        }
    ],
    "nodes" : [
        {
            "mesh" : 0,
            "name" : "instance_2",
            "translation" : [
                -13.894390106201172,
                0,
                71.51781463623047
            ]
        },
        {
            "children" : [
                0
            ],
            "name" : "SketchUp",
            "scale" : [
                0.02539999969303608,
                0.02539999969303608,
                0.02539999969303608
            ]
        }
    ],
    "materials" : [
        {
            "doubleSided" : true,
            "name" : "Color_M00.012",
            "pbrMetallicRoughness" : {
                "metallicFactor" : 0,
                "roughnessFactor" : 0.5
            }
        }
    ],
    "meshes" : [
        {
            "name" : "ID9.002",
            "primitives" : [
                {
                    "attributes" : {
                        "POSITION" : 0,
                        "NORMAL" : 1
                    },
                    "indices" : 2,
                    "material" : 0
                }
            ]
        }
    ],
    "accessors" : [
        {
            "bufferView" : 0,
            "componentType" : 5126,
            "count" : 90846,
            "max" : [
                1203.8812255859375,
                94.1991195678711,
                219.41419982910156
            ],
            "min" : [
                -1268.9530029296875,
                33.56125259399414,
                -1275.8741455078125
            ],
            "type" : "VEC3"
        },
        {
            "bufferView" : 1,
            "componentType" : 5126,
            "count" : 90846,
            "type" : "VEC3"
        },
        {
            "bufferView" : 2,
            "componentType" : 5125,
            "count" : 91527,
            "type" : "SCALAR"
        }
    ],
    "bufferViews" : [
        {
            "buffer" : 0,
            "byteLength" : 1090152,
            "byteOffset" : 0
        },
        {
            "buffer" : 0,
            "byteLength" : 1090152,
            "byteOffset" : 1090152
        },
        {
            "buffer" : 0,
            "byteLength" : 366108,
            "byteOffset" : 2180304
        }
    ],
    "buffers" : [
        {
            "byteLength" : 2546412,
            "uri" : "data:application/octet-stream;base64,"
        }
    ]
}
