{
    "asset" : {
        "generator" : "Khronos glTF Blender I/O v1.6.16",
        "version" : "2.0"
    },
    "scene" : 0,
    "scenes" : [
        {
            "name" : "Scene",
            "nodes" : [
                1
            ]
        }
    ],
    "nodes" : [
        {
            "mesh" : 0,
            "name" : "instance_0",
            "translation" : [
                573.74609375,
                0,
                -589.2510986328125
            ]
        },
        {
            "children" : [
                0
            ],
            "name" : "SketchUp",
            "scale" : [
                0.02539999969303608,
                0.02539999969303608,
                0.02539999969303608
            ]
        }
    ],
    "materials" : [
        {
            "doubleSided" : true,
            "name" : "Color_M00.002",
            "pbrMetallicRoughness" : {
                "metallicFactor" : 0,
                "roughnessFactor" : 0.5
            }
        }
    ],
    "meshes" : [
        {
            "name" : "ID5.002",
            "primitives" : [
                {
                    "attributes" : {
                        "POSITION" : 0,
                        "NORMAL" : 1
                    },
                    "indices" : 2,
                    "material" : 0
                }
            ]
        }
    ],
    "accessors" : [
        {
            "bufferView" : 0,
            "componentType" : 5126,
            "count" : 33702,
            "max" : [
                244.08248901367188,
                98.6103286743164,
                1048.447998046875
            ],
            "min" : [
                -1041.1920166015625,
                50.759246826171875,
                73.1380615234375
            ],
            "type" : "VEC3"
        },
        {
            "bufferView" : 1,
            "componentType" : 5126,
            "count" : 33702,
            "type" : "VEC3"
        },
        {
            "bufferView" : 2,
            "componentType" : 5123,
            "count" : 33972,
            "type" : "SCALAR"
        }
    ],
    "bufferViews" : [
        {
            "buffer" : 0,
            "byteLength" : 404424,
            "byteOffset" : 0
        },
        {
            "buffer" : 0,
            "byteLength" : 404424,
            "byteOffset" : 404424
        },
        {
            "buffer" : 0,
            "byteLength" : 67944,
            "byteOffset" : 808848
        }
    ],
    "buffers" : [
        {
            "byteLength" : 876792,
            "uri" : "data:application/octet-stream;base64,"
        }
    ]
}
