{
    "asset" : {
        "generator" : "Khronos glTF Blender I/O v1.6.16",
        "version" : "2.0"
    },
    "scene" : 0,
    "scenes" : [
        {
            "name" : "Scene",
            "nodes" : [
                1
            ]
        }
    ],
    "nodes" : [
        {
            "mesh" : 0,
            "name" : "instance_0",
            "translation" : [
                -271.576904296875,
                0,
                -219.5137939453125
            ]
        },
        {
            "children" : [
                0
            ],
            "name" : "SketchUp",
            "scale" : [
                0.02539999969303608,
                0.02539999969303608,
                0.02539999969303608
            ]
        }
    ],
    "materials" : [
        {
            "doubleSided" : true,
            "name" : "Color_M00.003",
            "pbrMetallicRoughness" : {
                "metallicFactor" : 0,
                "roughnessFactor" : 0.5
            }
        }
    ],
    "meshes" : [
        {
            "name" : "ID5.003",
            "primitives" : [
                {
                    "attributes" : {
                        "POSITION" : 0,
                        "NORMAL" : 1
                    },
                    "indices" : 2,
                    "material" : 0
                }
            ]
        }
    ],
    "accessors" : [
        {
            "bufferView" : 0,
            "componentType" : 5126,
            "count" : 90111,
            "max" : [
                1041.1920166015625,
                58.91837692260742,
                1048.373046875
            ],
            "min" : [
                -341.72540283203125,
                13.217390060424805,
                -1048.3131103515625
            ],
            "type" : "VEC3"
        },
        {
            "bufferView" : 1,
            "componentType" : 5126,
            "count" : 90111,
            "type" : "VEC3"
        },
        {
            "bufferView" : 2,
            "componentType" : 5125,
            "count" : 90804,
            "type" : "SCALAR"
        }
    ],
    "bufferViews" : [
        {
            "buffer" : 0,
            "byteLength" : 1081332,
            "byteOffset" : 0
        },
        {
            "buffer" : 0,
            "byteLength" : 1081332,
            "byteOffset" : 1081332
        },
        {
            "buffer" : 0,
            "byteLength" : 363216,
            "byteOffset" : 2162664
        }
    ],
    "buffers" : [
        {
            "byteLength" : 2525880,
            "uri" : "data:application/octet-stream;base64,"
        }
    ]
}
