<?xml version="1.0" encoding="UTF-8" standalone="no"?><!DOCTYPE svg PUBLIC "-//W3C//DTD SVG 1.1//EN" "http://www.w3.org/Graphics/SVG/1.1/DTD/svg11.dtd"><svg width="100%" height="100%" viewBox="0 0 104 24" version="1.1" xmlns="http://www.w3.org/2000/svg" xmlns:xlink="http://www.w3.org/1999/xlink" xml:space="preserve" xmlns:serif="http://www.serif.com/" style="fill-rule:evenodd;clip-rule:evenodd;stroke-linejoin:round;stroke-miterlimit:2;"><path id="path836" d="M8.284,22.929c-5.279,-1.58 -9.132,-7.86 -8.123,-13.239c0.674,-3.593 4.575,-7.987 8.132,-9.161c7.988,-2.636 16.702,5.015 15.148,13.3c-0.698,3.718 -4.699,8.105 -8.306,9.107c-3.364,0.934 -3.707,0.933 -6.851,-0.008l0,0.001Zm40,-0c-5.279,-1.58 -9.132,-7.86 -8.123,-13.239c0.674,-3.593 4.575,-7.987 8.132,-9.161c7.988,-2.636 16.702,5.015 15.148,13.3c-0.698,3.718 -4.699,8.105 -8.306,9.107c-3.364,0.934 -3.707,0.933 -6.851,-0.008l0,0.001Zm40,-0c-5.279,-1.58 -9.132,-7.86 -8.123,-13.239c0.674,-3.593 4.575,-7.987 8.132,-9.161c7.988,-2.636 16.702,5.015 15.148,13.3c-0.698,3.718 -4.699,8.105 -8.306,9.107c-3.364,0.934 -3.707,0.933 -6.851,-0.008l0,0.001Z" style="fill:#4e4e4e;fill-rule:nonzero;"/></svg>