<?xml version="1.0" encoding="UTF-8" standalone="no"?><!DOCTYPE svg PUBLIC "-//W3C//DTD SVG 1.1//EN" "http://www.w3.org/Graphics/SVG/1.1/DTD/svg11.dtd"><svg width="100%" height="100%" viewBox="0 0 806 122" version="1.1" xmlns="http://www.w3.org/2000/svg" xmlns:xlink="http://www.w3.org/1999/xlink" style="fill-rule:evenodd;clip-rule:evenodd;stroke-linejoin:round;stroke-miterlimit:2;"><g><g><path d="M60.444,83.239l-1.237,2.546l-0.761,-0l-0.428,0.452l1.344,8.572l0.916,-0.234l-0.166,3.518l-1.249,1.819l-2.801,6.737l-2.649,7.11l-0.617,6.912l0.328,1.31l8.809,-7.581l1.517,-4.327l3.033,0l1.487,-0.476l6.675,0.848l1.292,1.039l5.219,0.289l6.309,-0.704l6.775,-8.992l3.283,-1.19l1.303,0.457l6.243,-1.432l0.8,1.63l0.651,-0.198l-0.331,-1.03l12.405,-4.447l7.877,14.389l-0.258,0.189l1.254,2.26l0.488,-0.226l0.292,0.659l1.142,-0.518l0.32,0.518l3.125,-1.239l-0.113,2.501l1.68,-0l0.455,-2.501l-0,-3.624l1.872,0.373l5.968,-0.373l-7.113,-20.789l1.743,-0.624l1.134,-0.175l3.175,-1.408l1.407,-0l1.165,1.897l0.706,1.014l1.321,-0.102l0.565,-0.602l0.074,-0.624l-1.009,-0.722l-0.951,-0.632l-0.168,-0.701l0.538,-0.889l0.951,-0.136l1.286,0.358l1.454,-0.581l0.581,0.137l-0,1.583l1.528,1.897l-0.191,1.532l0.105,1.181l1.851,1.462l0.569,-0.098l0.187,-1.668l1.029,-0.787l1.006,-0l1.2,-0.608l0.569,0.253l0,1.657l0.87,1.048l1.309,-0.144l1.088,-0.904l-0.811,-1.392l-0.277,-1.017l-2.073,-1.15l-0.316,-0.756l0.397,-0.585l0.936,0.721l0.853,-1.527l-1.679,-3.68l-0.415,-4.633l0.988,-0.924l-1.439,-1.267l1.161,-2.424l2.139,1.255l0.675,-1.007l-2.283,-1.339l2.283,-3.399l-6.181,-7.006l4.223,-4.927l-0.476,-0.335l-0.675,0.487l-3.76,-3.056l-1.31,0.48l-0.596,-0.558l3.38,-1.07l7.793,-5.11l3.445,-2.883l-4.406,-0.914l-1.437,-0.485l-1.227,1.075l-3.274,-3.492l0.526,-0.276l-2.894,-1.751l-3.053,-3.073l-0.792,0.514l-1.685,-1.799l-1.113,-1.332l-0.742,-2.132l-3.864,1.18l-5.728,-1.789l-0.523,0.838l-0.862,0.257l-3.868,-2.303l-1.18,-1.38l-0.475,-1.741l-0.671,0.219l-0.785,1.522l-1.399,1.38l-1.256,-0.837l0.923,-1.532l-0.659,-0.752l-1.035,0.219l-1.266,-0.733l-0.999,0.514l-1.142,-0l-0.97,-0.514l-0.219,-0.952l-1.988,-0.39l-0.838,-1.046l-0.818,0.352l-3.321,-1.047l-1.894,2.74l-0.39,0l-3.236,4.768l-15.139,0.418l-12.408,-5.795l-4.853,0l-0,1.97l-8.441,2.065l-1.484,-4.843l-9.107,2.274l-4.025,4.329l-2.921,-2.274l-1.979,2.274l-2.607,0.609l-3.036,2.627l0,2.636l0.39,0.295l2.96,-1.123l-0.819,1.865l-2.94,3.273l-7.305,3.932l-0.98,-0.615l4.225,17.883l-16.727,-1.368l-2.168,-0.975l-0.92,0.975l-1.303,-0.622l-6.644,11.072l-5.189,0.365l-2.71,-1.358l-1.967,1.84l9.866,4.588l10.615,2.706l6.461,0.218l9.58,-2.101l3.69,0l6.65,1.711l6.551,2.948l7.031,3.134" style="fill:#f6f8ff;"/><path d="M128.501,0l6.347,16.226l11.779,-12.838l0.056,17.423l15.621,-7.716l-6.241,16.267l17.354,-1.552l-11.697,12.914l16.743,4.822l-15.572,7.816l13.87,10.545l-17.343,1.663l9.124,14.843l-16.773,-4.714l3.146,17.137l-13.937,-10.455l-3.257,17.116l-9.22,-14.784l-9.219,14.784l-3.257,-17.116l-13.938,10.455l3.147,-17.137l-16.774,4.714l9.125,-14.843l-17.344,-1.663l13.87,-10.545l-15.571,-7.816l16.742,-4.822l-11.696,-12.914l17.354,1.552l-6.242,-16.267l15.622,7.716l0.056,-17.423l11.779,12.838l6.346,-16.226Z" style="fill:#ffb600;"/><circle cx="128.501" cy="49.807" r="30.398" style="fill:#ff8100;"/><clipPath id="_clip1"><circle cx="128.501" cy="49.807" r="30.398"/></clipPath><g clip-path="url(#_clip1)"><circle cx="126.711" cy="51.598" r="30.398" style="fill:#ff9800;"/></g><text x="194.931px" y="75.844px" style="font-family:'WorkSans-BoldItalic', 'Work Sans';font-weight:700;font-style:italic;font-size:56.125px;fill:#fff;">M<tspan x="245.444px " y="75.844px ">a</tspan>pa Sol<tspan x="453.217px 487.903px 511.812px 545.992px 580.677px 595.662px 628.158px 661.833px 685.742px " y="75.844px 75.844px 75.844px 75.844px 75.844px 75.844px 75.844px 75.844px 75.844px ">arna Toru</tspan>nia</text></g></g></svg>