<?xml version="1.0" encoding="UTF-8" standalone="no"?><!DOCTYPE svg PUBLIC "-//W3C//DTD SVG 1.1//EN" "http://www.w3.org/Graphics/SVG/1.1/DTD/svg11.dtd"><svg width="100%" height="100%" viewBox="0 0 806 122" version="1.1" xmlns="http://www.w3.org/2000/svg" xmlns:xlink="http://www.w3.org/1999/xlink" style="fill-rule:evenodd;clip-rule:evenodd;stroke-linejoin:round;stroke-miterlimit:2;"><g><g><path d="M60.444,83.239l-1.237,2.546l-0.761,-0l-0.428,0.452l1.344,8.572l0.916,-0.234l-0.166,3.518l-1.249,1.819l-2.801,6.737l-2.649,7.11l-0.617,6.912l0.328,1.31l8.809,-7.581l1.517,-4.327l3.033,0l1.487,-0.476l6.675,0.848l1.292,1.039l5.219,0.289l6.309,-0.704l6.775,-8.992l3.283,-1.19l1.303,0.457l6.243,-1.432l0.8,1.63l0.651,-0.198l-0.331,-1.03l12.405,-4.447l7.877,14.389l-0.258,0.189l1.254,2.26l0.488,-0.226l0.292,0.659l1.142,-0.518l0.32,0.518l3.125,-1.239l-0.113,2.501l1.68,-0l0.455,-2.501l-0,-3.624l1.872,0.373l5.968,-0.373l-7.113,-20.789l1.743,-0.624l1.134,-0.175l3.175,-1.408l1.407,-0l1.165,1.897l0.706,1.014l1.321,-0.102l0.565,-0.602l0.074,-0.624l-1.009,-0.722l-0.951,-0.632l-0.168,-0.701l0.538,-0.889l0.951,-0.136l1.286,0.358l1.454,-0.581l0.581,0.137l-0,1.583l1.528,1.897l-0.191,1.532l0.105,1.181l1.851,1.462l0.569,-0.098l0.187,-1.668l1.029,-0.787l1.006,-0l1.2,-0.608l0.569,0.253l0,1.657l0.87,1.048l1.309,-0.144l1.088,-0.904l-0.811,-1.392l-0.277,-1.017l-2.073,-1.15l-0.316,-0.756l0.397,-0.585l0.936,0.721l0.853,-1.527l-1.679,-3.68l-0.415,-4.633l0.988,-0.924l-1.439,-1.267l1.161,-2.424l2.139,1.255l0.675,-1.007l-2.283,-1.339l2.283,-3.399l-6.181,-7.006l4.223,-4.927l-0.476,-0.335l-0.675,0.487l-3.76,-3.056l-1.31,0.48l-0.596,-0.558l3.38,-1.07l7.793,-5.11l3.445,-2.883l-4.406,-0.914l-1.437,-0.485l-1.227,1.075l-3.274,-3.492l0.526,-0.276l-2.894,-1.751l-3.053,-3.073l-0.792,0.514l-1.685,-1.799l-1.113,-1.332l-0.742,-2.132l-3.864,1.18l-5.728,-1.789l-0.523,0.838l-0.862,0.257l-3.868,-2.303l-1.18,-1.38l-0.475,-1.741l-0.671,0.219l-0.785,1.522l-1.399,1.38l-1.256,-0.837l0.923,-1.532l-0.659,-0.752l-1.035,0.219l-1.266,-0.733l-0.999,0.514l-1.142,-0l-0.97,-0.514l-0.219,-0.952l-1.988,-0.39l-0.838,-1.046l-0.818,0.352l-3.321,-1.047l-1.894,2.74l-0.39,0l-3.236,4.768l-15.139,0.418l-12.408,-5.795l-4.853,0l-0,1.97l-8.441,2.065l-1.484,-4.843l-9.107,2.274l-4.025,4.329l-2.921,-2.274l-1.979,2.274l-2.607,0.609l-3.036,2.627l0,2.636l0.39,0.295l2.96,-1.123l-0.819,1.865l-2.94,3.273l-7.305,3.932l-0.98,-0.615l4.225,17.883l-16.727,-1.368l-2.168,-0.975l-0.92,0.975l-1.303,-0.622l-6.644,11.072l-5.189,0.365l-2.71,-1.358l-1.967,1.84l9.866,4.588l10.615,2.706l6.461,0.218l9.58,-2.101l3.69,0l6.65,1.711l6.551,2.948l7.031,3.134" style="fill:#f6f8ff;"/><path d="M128.501,0l6.347,16.226l11.779,-12.838l0.056,17.423l15.621,-7.716l-6.241,16.267l17.354,-1.552l-11.697,12.914l16.743,4.822l-15.572,7.816l13.87,10.545l-17.343,1.663l9.124,14.843l-16.773,-4.714l3.146,17.137l-13.937,-10.455l-3.257,17.116l-9.22,-14.784l-9.219,14.784l-3.257,-17.116l-13.938,10.455l3.147,-17.137l-16.774,4.714l9.125,-14.843l-17.344,-1.663l13.87,-10.545l-15.571,-7.816l16.742,-4.822l-11.696,-12.914l17.354,1.552l-6.242,-16.267l15.622,7.716l0.056,-17.423l11.779,12.838l6.346,-16.226Z" style="fill:#ffb600;"/><circle cx="128.501" cy="49.807" r="30.398" style="fill:#ff8100;"/><clipPath id="_clip1"><circle cx="128.501" cy="49.807" r="30.398"/></clipPath><g clip-path="url(#_clip1)"><circle cx="126.711" cy="51.598" r="30.398" style="fill:#ff9800;"/></g><path d="M294.316,53.261c0.273,-0.519 0.576,-1.007 0.91,-1.467c1.048,-1.44 2.33,-2.553 3.845,-3.339c1.515,-0.786 3.134,-1.179 4.855,-1.179c1.796,0 3.377,0.421 4.742,1.263c1.366,0.842 2.442,2.095 3.227,3.76c0.786,1.665 1.179,3.695 1.179,6.09c0,2.245 -0.318,4.452 -0.954,6.623c-0.636,2.17 -1.544,4.106 -2.722,5.808c-1.179,1.703 -2.582,3.059 -4.209,4.07c-1.628,1.01 -3.433,1.515 -5.417,1.515c-1.496,-0 -2.927,-0.29 -4.293,-0.87c-1.366,-0.58 -2.479,-1.497 -3.339,-2.75c-0.521,-0.758 -0.89,-1.655 -1.11,-2.693l0.941,-4.07l-1.178,1.852c0.014,0.799 0.094,1.539 0.237,2.218l-4.054,17.538l-9.541,-0l9.204,-39.849l8.643,0l-0.966,5.48c-0.584,1.107 -1.029,2.349 -1.335,3.725l0.618,0.336l0.717,-4.061Zm89.756,23.2c-2.619,0 -5.089,-0.346 -7.409,-1.038c-2.319,-0.692 -4.405,-1.712 -6.258,-3.059c-1.852,-1.347 -3.433,-3.05 -4.742,-5.107l5.669,-5.557c0.897,1.572 2.029,2.909 3.395,4.013c1.366,1.104 2.853,1.927 4.462,2.47c1.609,0.542 3.218,0.813 4.827,0.813c1.16,0 2.104,-0.168 2.834,-0.505c0.73,-0.336 1.282,-0.785 1.656,-1.347c0.374,-0.561 0.561,-1.16 0.561,-1.796c-0,-0.823 -0.299,-1.468 -0.898,-1.936c-0.599,-0.468 -1.497,-0.889 -2.694,-1.263l-5.556,-1.796c-1.684,-0.561 -3.209,-1.3 -4.575,-2.217c-1.365,-0.916 -2.441,-2.048 -3.227,-3.395c-0.785,-1.347 -1.178,-2.9 -1.178,-4.659c-0,-2.507 0.645,-4.639 1.936,-6.398c1.291,-1.758 3.068,-3.105 5.332,-4.041c2.263,-0.935 4.855,-1.403 7.773,-1.403c3.854,0 7.109,0.683 9.766,2.049c2.656,1.365 4.845,3.283 6.566,5.752l-5.893,5.388c-0.785,-1.309 -1.73,-2.385 -2.834,-3.227c-1.104,-0.842 -2.311,-1.468 -3.62,-1.88c-1.31,-0.412 -2.638,-0.617 -3.985,-0.617c-1.122,-0 -2.058,0.149 -2.806,0.449c-0.749,0.299 -1.3,0.701 -1.656,1.206c-0.355,0.505 -0.533,1.095 -0.533,1.768c-0,0.749 0.365,1.431 1.094,2.049c0.73,0.617 1.693,1.113 2.891,1.487l5.556,1.796c2.806,0.898 4.939,2.124 6.398,3.676c1.46,1.553 2.189,3.583 2.189,6.09c0,2.544 -0.664,4.733 -1.992,6.566c-1.328,1.834 -3.134,3.237 -5.416,4.21c-2.283,0.973 -4.827,1.459 -7.633,1.459Zm33.057,-0.056c-2.843,-0 -5.304,-0.561 -7.38,-1.684c-2.077,-1.122 -3.676,-2.647 -4.799,-4.574c-1.122,-1.927 -1.684,-4.088 -1.684,-6.482c0,-3.031 0.627,-5.791 1.881,-8.279c1.253,-2.488 3.068,-4.471 5.444,-5.949c2.376,-1.478 5.266,-2.217 8.671,-2.217c2.881,0 5.351,0.561 7.408,1.684c2.058,1.122 3.649,2.638 4.771,4.546c1.123,1.908 1.684,4.078 1.684,6.51c-0,2.994 -0.627,5.744 -1.88,8.251c-1.254,2.507 -3.068,4.499 -5.444,5.977c-2.376,1.478 -5.267,2.217 -8.672,2.217Zm226.8,-0c-2.843,-0 -5.303,-0.561 -7.38,-1.684c-2.077,-1.122 -3.676,-2.647 -4.799,-4.574c-1.122,-1.927 -1.683,-4.088 -1.683,-6.482c-0,-3.031 0.626,-5.791 1.88,-8.279c1.253,-2.488 3.068,-4.471 5.444,-5.949c2.376,-1.478 5.266,-2.217 8.671,-2.217c2.881,0 5.351,0.561 7.409,1.684c2.057,1.122 3.648,2.638 4.77,4.546c1.123,1.908 1.684,4.078 1.684,6.51c-0,2.994 -0.627,5.744 -1.88,8.251c-1.254,2.507 -3.068,4.499 -5.444,5.977c-2.376,1.478 -5.267,2.217 -8.672,2.217Zm-198.681,-0.056c-3.368,-0 -5.734,-0.926 -7.1,-2.778c-1.366,-1.853 -1.674,-4.331 -0.926,-7.437l7.016,-30.251l9.541,-0l-6.96,30.139c-0.336,1.235 -0.28,2.161 0.169,2.778c0.449,0.617 1.272,0.926 2.469,0.926c0.449,0 0.842,-0.019 1.179,-0.056c0.336,-0.037 0.617,-0.094 0.842,-0.168l-1.684,6.173c-0.599,0.262 -1.254,0.44 -1.964,0.533c-0.711,0.094 -1.572,0.141 -2.582,0.141Zm112.249,-0c-1.871,-0 -3.545,-0.44 -5.023,-1.319c-1.478,-0.879 -2.638,-2.152 -3.48,-3.817c-0.842,-1.665 -1.262,-3.713 -1.262,-6.145c-0,-2.245 0.318,-4.434 0.954,-6.567c0.636,-2.133 1.562,-4.05 2.778,-5.753c1.216,-1.702 2.675,-3.049 4.378,-4.041c1.702,-0.991 3.62,-1.487 5.752,-1.487c1.235,0 2.423,0.225 3.564,0.674c1.141,0.449 2.114,1.141 2.919,2.076c0.804,0.936 1.356,2.17 1.655,3.704l1.347,-5.893l9.542,0l-6.511,28.063l-8.643,-0l0.954,-5.276c-0.898,1.796 -2.133,3.208 -3.704,4.237c-1.572,1.029 -3.312,1.544 -5.22,1.544Zm-231.178,-0c-1.87,-0 -3.545,-0.44 -5.023,-1.319c-1.478,-0.879 -2.638,-2.152 -3.479,-3.817c-0.842,-1.665 -1.263,-3.713 -1.263,-6.145c-0,-2.245 0.318,-4.434 0.954,-6.567c0.636,-2.133 1.562,-4.05 2.778,-5.753c1.216,-1.702 2.675,-3.049 4.378,-4.041c1.702,-0.991 3.62,-1.487 5.753,-1.487c1.234,0 2.422,0.225 3.563,0.674c1.142,0.449 2.115,1.141 2.919,2.076c0.804,0.936 1.356,2.17 1.656,3.704l1.347,-5.893l9.541,0l-6.511,28.063l-8.643,-0l0.954,-5.276c-0.898,1.796 -2.132,3.208 -3.704,4.237c-1.571,1.029 -3.311,1.544 -5.22,1.544Zm455.621,-0c-1.871,-0 -3.545,-0.44 -5.023,-1.319c-1.478,-0.879 -2.638,-2.152 -3.48,-3.817c-0.842,-1.665 -1.263,-3.713 -1.263,-6.145c0,-2.245 0.318,-4.434 0.954,-6.567c0.637,-2.133 1.563,-4.05 2.779,-5.753c1.216,-1.702 2.675,-3.049 4.377,-4.041c1.703,-0.991 3.62,-1.487 5.753,-1.487c1.235,0 2.423,0.225 3.564,0.674c1.141,0.449 2.114,1.141 2.919,2.076c0.804,0.936 1.356,2.17 1.655,3.704l1.347,-5.893l9.541,0l-6.51,28.063l-8.643,-0l0.954,-5.276c-0.898,1.796 -2.133,3.208 -3.704,4.237c-1.572,1.029 -3.312,1.544 -5.22,1.544Zm-524.991,-0c-1.871,-0 -3.545,-0.44 -5.023,-1.319c-1.478,-0.879 -2.638,-2.152 -3.48,-3.817c-0.841,-1.665 -1.262,-3.713 -1.262,-6.145c-0,-2.245 0.318,-4.434 0.954,-6.567c0.636,-2.133 1.562,-4.05 2.778,-5.753c1.216,-1.702 2.675,-3.049 4.378,-4.041c1.702,-0.991 3.62,-1.487 5.752,-1.487c1.235,0 2.423,0.225 3.564,0.674c1.142,0.449 2.114,1.141 2.919,2.076c0.804,0.936 1.356,2.17 1.655,3.704l1.347,-5.893l9.542,0l-6.511,28.063l-8.643,-0l0.954,-5.276c-0.898,1.796 -2.133,3.208 -3.704,4.237c-1.572,1.029 -3.311,1.544 -5.22,1.544Zm207.774,-0c-1.871,-0 -3.545,-0.44 -5.023,-1.319c-1.478,-0.879 -2.638,-2.152 -3.48,-3.817c-0.842,-1.665 -1.263,-3.713 -1.263,-6.145c0,-2.245 0.318,-4.434 0.954,-6.567c0.637,-2.133 1.563,-4.05 2.779,-5.753c1.216,-1.702 2.675,-3.049 4.377,-4.041c1.703,-0.991 3.62,-1.487 5.753,-1.487c1.235,0 2.423,0.225 3.564,0.674c1.141,0.449 2.114,1.141 2.919,2.076c0.804,0.936 1.356,2.17 1.655,3.704l1.347,-5.893l9.541,0l-6.51,28.063l-8.643,-0l0.954,-5.276c-0.898,1.796 -2.133,3.208 -3.704,4.237c-1.572,1.029 -3.312,1.544 -5.22,1.544Zm241.111,-5.854c-0.766,1.477 -1.767,2.69 -3.002,3.637c-1.927,1.478 -4.2,2.217 -6.819,2.217c-1.983,-0 -3.667,-0.431 -5.051,-1.291c-1.385,-0.861 -2.367,-2.086 -2.947,-3.676c-0.58,-1.59 -0.626,-3.489 -0.14,-5.697l4.209,-17.904l9.542,0l-3.817,16.501c-0.374,1.534 -0.234,2.713 0.421,3.536c0.655,0.823 1.637,1.235 2.947,1.235c1.01,-0 1.889,-0.234 2.637,-0.702c0.749,-0.468 1.375,-1.16 1.881,-2.077c0.505,-0.916 0.907,-2.029 1.206,-3.339l3.536,-15.154l9.541,0l-6.51,28.063l-8.475,-0l0.841,-5.349c0.429,-0.828 0.785,-1.739 1.067,-2.733l-0.505,-0.842l-0.562,3.575Zm-30.126,-16.197c0.397,-0.874 0.842,-1.68 1.335,-2.42c0.973,-1.459 2.17,-2.6 3.592,-3.423c1.422,-0.823 3.031,-1.235 4.827,-1.235c0.636,0 1.169,0.047 1.599,0.14c0.43,0.094 0.795,0.215 1.095,0.365l-2.301,8.026c-0.375,-0.187 -0.814,-0.327 -1.319,-0.421c-0.506,-0.093 -1.151,-0.14 -1.937,-0.14c-1.16,-0 -2.291,0.252 -3.395,0.757c-1.104,0.506 -2.068,1.319 -2.891,2.442c-0.823,1.122 -1.459,2.619 -1.908,4.49l-3.031,12.965l-9.541,-0l6.511,-28.063l8.474,0l-1.11,6.517c-0.386,0.851 -0.727,1.765 -1.022,2.744l0.393,0.954l0.629,-3.698Zm-149.761,-1.11c0.781,-1.514 1.813,-2.756 3.095,-3.723c1.983,-1.497 4.284,-2.245 6.903,-2.245c2.021,0 3.714,0.44 5.08,1.319c1.365,0.879 2.319,2.123 2.862,3.732c0.543,1.609 0.552,3.555 0.028,5.837l-4.153,17.736l-9.541,-0l3.872,-16.557c0.337,-1.497 0.206,-2.666 -0.393,-3.508c-0.598,-0.842 -1.571,-1.263 -2.918,-1.263c-1.01,0 -1.899,0.234 -2.666,0.702c-0.767,0.468 -1.422,1.16 -1.964,2.076c-0.543,0.917 -0.964,2.049 -1.263,3.396l-3.536,15.154l-9.541,-0l6.51,-28.063l8.475,0l-0.85,5.407c-0.428,0.829 -0.78,1.739 -1.058,2.731l0.505,0.786l0.553,-3.517Zm110.069,-14.387l-1.74,7.465l-11.955,-0l-6.847,29.578l-9.653,-0l6.847,-29.578l-12.067,-0l1.74,-7.465l33.675,0Zm98.098,14.387c0.781,-1.514 1.813,-2.756 3.095,-3.723c1.983,-1.497 4.284,-2.245 6.903,-2.245c2.02,0 3.714,0.44 5.079,1.319c1.366,0.879 2.32,2.123 2.863,3.732c0.542,1.609 0.552,3.555 0.028,5.837l-4.154,17.736l-9.541,-0l3.873,-16.557c0.337,-1.497 0.206,-2.666 -0.393,-3.508c-0.599,-0.842 -1.571,-1.263 -2.918,-1.263c-1.011,0 -1.899,0.234 -2.666,0.702c-0.767,0.468 -1.422,1.16 -1.965,2.076c-0.542,0.917 -0.963,2.049 -1.263,3.396l-3.535,15.154l-9.542,-0l6.511,-28.063l8.475,0l-0.85,5.407c-0.428,0.829 -0.781,1.739 -1.059,2.731l0.506,0.786l0.553,-3.517Zm-538.397,22.656l8.587,-37.043l12.179,0l1.796,17.96l0.505,9.149l0.057,-0l4.49,-9.149l9.821,-17.96l13.807,0l-8.587,37.043l-8.531,-0l3.929,-17.006l2.638,-10.944l-0.113,-0l-15.546,27.95l-7.409,-0l-3.03,-27.726l-0.113,0l-2.02,10.72l-3.929,17.006l-8.531,-0Zm574.661,-28.063l-6.51,28.063l-9.541,-0l6.51,-28.063l9.541,0Zm-268.6,6.517c0.397,-0.874 0.842,-1.68 1.334,-2.42c0.973,-1.459 2.171,-2.6 3.592,-3.423c1.422,-0.823 3.031,-1.235 4.827,-1.235c0.636,0 1.169,0.047 1.6,0.14c0.43,0.094 0.795,0.215 1.094,0.365l-2.301,8.026c-0.374,-0.187 -0.814,-0.327 -1.319,-0.421c-0.505,-0.093 -1.151,-0.14 -1.936,-0.14c-1.16,-0 -2.292,0.252 -3.396,0.757c-1.104,0.506 -2.067,1.319 -2.89,2.442c-0.823,1.122 -1.459,2.619 -1.908,4.49l-3.031,12.965l-9.541,-0l6.51,-28.063l8.475,0l-1.11,6.517c-0.387,0.851 -0.727,1.765 -1.023,2.744l0.393,0.954l0.63,-3.698Zm142.264,15.372c0.972,-0 1.861,-0.309 2.666,-0.926c0.804,-0.617 1.496,-1.45 2.076,-2.498c0.58,-1.047 1.02,-2.179 1.319,-3.395c0.299,-1.216 0.449,-2.442 0.449,-3.676c0,-1.085 -0.178,-2.012 -0.533,-2.779c-0.356,-0.767 -0.879,-1.365 -1.572,-1.796c-0.692,-0.43 -1.543,-0.645 -2.553,-0.645c-0.936,0 -1.806,0.309 -2.61,0.926c-0.805,0.617 -1.497,1.441 -2.077,2.47c-0.58,1.029 -1.029,2.16 -1.347,3.395c-0.318,1.235 -0.477,2.47 -0.477,3.704c0,1.048 0.178,1.965 0.533,2.75c0.356,0.786 0.889,1.394 1.6,1.824c0.711,0.431 1.553,0.646 2.526,0.646Zm-226.8,-0c0.972,-0 1.861,-0.309 2.665,-0.926c0.805,-0.617 1.497,-1.45 2.077,-2.498c0.58,-1.047 1.02,-2.179 1.319,-3.395c0.299,-1.216 0.449,-2.442 0.449,-3.676c0,-1.085 -0.178,-2.012 -0.533,-2.779c-0.356,-0.767 -0.879,-1.365 -1.572,-1.796c-0.692,-0.43 -1.543,-0.645 -2.553,-0.645c-0.936,0 -1.806,0.309 -2.61,0.926c-0.805,0.617 -1.497,1.441 -2.077,2.47c-0.58,1.029 -1.029,2.16 -1.347,3.395c-0.318,1.235 -0.477,2.47 -0.477,3.704c0,1.048 0.178,1.965 0.533,2.75c0.356,0.786 0.889,1.394 1.6,1.824c0.711,0.431 1.553,0.646 2.526,0.646Zm51.634,-0.281c0.936,0 1.796,-0.299 2.582,-0.898c0.786,-0.598 1.469,-1.393 2.049,-2.385c0.58,-0.992 1.029,-2.077 1.347,-3.255c0.318,-1.179 0.477,-2.348 0.477,-3.508c-0,-1.048 -0.178,-1.955 -0.534,-2.722c-0.355,-0.767 -0.851,-1.356 -1.487,-1.768c-0.636,-0.412 -1.403,-0.617 -2.301,-0.617c-1.048,-0 -1.983,0.308 -2.806,0.926c-0.823,0.617 -1.516,1.412 -2.077,2.385c-0.561,0.973 -0.991,2.03 -1.291,3.171c-0.299,1.141 -0.449,2.236 -0.449,3.283c0,1.123 0.169,2.086 0.505,2.891c0.337,0.804 0.833,1.422 1.488,1.852c0.655,0.43 1.487,0.645 2.497,0.645Zm-138.403,0c0.935,0 1.796,-0.299 2.581,-0.898c0.786,-0.598 1.469,-1.393 2.049,-2.385c0.58,-0.992 1.029,-2.077 1.347,-3.255c0.318,-1.179 0.477,-2.348 0.477,-3.508c0,-1.048 -0.178,-1.955 -0.533,-2.722c-0.356,-0.767 -0.851,-1.356 -1.487,-1.768c-0.637,-0.412 -1.404,-0.617 -2.302,-0.617c-1.047,-0 -1.983,0.308 -2.806,0.926c-0.823,0.617 -1.515,1.412 -2.076,2.385c-0.562,0.973 -0.992,2.03 -1.291,3.171c-0.3,1.141 -0.449,2.236 -0.449,3.283c-0,1.123 0.168,2.086 0.505,2.891c0.337,0.804 0.832,1.422 1.487,1.852c0.655,0.43 1.487,0.645 2.498,0.645Zm-69.37,0c0.935,0 1.796,-0.299 2.581,-0.898c0.786,-0.598 1.469,-1.393 2.049,-2.385c0.58,-0.992 1.029,-2.077 1.347,-3.255c0.318,-1.179 0.477,-2.348 0.477,-3.508c-0,-1.048 -0.178,-1.955 -0.533,-2.722c-0.356,-0.767 -0.852,-1.356 -1.488,-1.768c-0.636,-0.412 -1.403,-0.617 -2.301,-0.617c-1.047,-0 -1.983,0.308 -2.806,0.926c-0.823,0.617 -1.515,1.412 -2.077,2.385c-0.561,0.973 -0.991,2.03 -1.29,3.171c-0.3,1.141 -0.449,2.236 -0.449,3.283c-0,1.123 0.168,2.086 0.505,2.891c0.336,0.804 0.832,1.422 1.487,1.852c0.655,0.43 1.487,0.645 2.498,0.645Zm300.547,0c0.936,0 1.796,-0.299 2.582,-0.898c0.786,-0.598 1.469,-1.393 2.049,-2.385c0.58,-0.992 1.029,-2.077 1.347,-3.255c0.318,-1.179 0.477,-2.348 0.477,-3.508c-0,-1.048 -0.178,-1.955 -0.533,-2.722c-0.356,-0.767 -0.852,-1.356 -1.488,-1.768c-0.636,-0.412 -1.403,-0.617 -2.301,-0.617c-1.047,-0 -1.983,0.308 -2.806,0.926c-0.823,0.617 -1.515,1.412 -2.077,2.385c-0.561,0.973 -0.991,2.03 -1.291,3.171c-0.299,1.141 -0.449,2.236 -0.449,3.283c0,1.123 0.169,2.086 0.506,2.891c0.336,0.804 0.832,1.422 1.487,1.852c0.655,0.43 1.487,0.645 2.497,0.645Zm224.443,0c0.936,0 1.796,-0.299 2.582,-0.898c0.786,-0.598 1.469,-1.393 2.049,-2.385c0.58,-0.992 1.029,-2.077 1.347,-3.255c0.318,-1.179 0.477,-2.348 0.477,-3.508c-0,-1.048 -0.178,-1.955 -0.534,-2.722c-0.355,-0.767 -0.851,-1.356 -1.487,-1.768c-0.636,-0.412 -1.403,-0.617 -2.301,-0.617c-1.048,-0 -1.983,0.308 -2.806,0.926c-0.823,0.617 -1.516,1.412 -2.077,2.385c-0.561,0.973 -0.991,2.03 -1.291,3.171c-0.299,1.141 -0.449,2.236 -0.449,3.283c0,1.123 0.169,2.086 0.505,2.891c0.337,0.804 0.833,1.422 1.488,1.852c0.655,0.43 1.487,0.645 2.497,0.645Zm-489.015,0c1.011,0 1.918,-0.308 2.723,-0.926c0.804,-0.617 1.487,-1.412 2.048,-2.385c0.561,-0.973 1.001,-2.039 1.319,-3.199c0.318,-1.16 0.477,-2.283 0.477,-3.368c0,-1.122 -0.168,-2.067 -0.505,-2.834c-0.337,-0.767 -0.842,-1.356 -1.515,-1.768c-0.674,-0.411 -1.478,-0.617 -2.414,-0.617c-0.973,-0 -1.861,0.29 -2.666,0.87c-0.804,0.58 -1.496,1.356 -2.076,2.329c-0.58,0.973 -1.02,2.058 -1.319,3.255c-0.3,1.197 -0.449,2.395 -0.449,3.592c-0,1.534 0.374,2.76 1.122,3.676c0.749,0.917 1.834,1.375 3.255,1.375Zm469.821,-24.863c-1.647,0 -2.928,-0.337 -3.845,-1.01c-0.917,-0.674 -1.281,-1.759 -1.094,-3.255c0.187,-1.722 0.767,-2.966 1.74,-3.733c0.972,-0.767 2.338,-1.15 4.097,-1.15c1.683,-0 2.984,0.355 3.9,1.066c0.917,0.711 1.282,1.759 1.095,3.143c-0.187,1.833 -0.777,3.115 -1.768,3.845c-0.992,0.729 -2.367,1.094 -4.125,1.094Z" style="fill:#fff;fill-rule:nonzero;"/></g></g></svg>