<?xml version="1.0" encoding="UTF-8" standalone="no"?><!DOCTYPE svg PUBLIC "-//W3C//DTD SVG 1.1//EN" "http://www.w3.org/Graphics/SVG/1.1/DTD/svg11.dtd"><svg width="100%" height="100%" viewBox="0 0 121 25" version="1.1" xmlns="http://www.w3.org/2000/svg" xmlns:xlink="http://www.w3.org/1999/xlink" style="fill-rule:evenodd;clip-rule:evenodd;stroke-linejoin:round;stroke-miterlimit:2;"><path d="M16.911,0.173c-5.508,-0.881 -10.817,1.67 -13.405,6.047c1.925,0.661 3.152,2.551 2.787,4.504c-0.365,1.984 -2.189,3.369 -4.213,3.338c0.829,4.976 4.877,9.101 10.385,10.014c6.934,1.166 13.57,-3.243 14.798,-9.857c1.227,-6.55 -3.385,-12.88 -10.352,-14.046Zm20.604,14.55c0.265,0 0.497,-0.031 0.697,-0.126c0.232,-0.094 0.398,-0.189 0.53,-0.346c0.166,-0.189 0.266,-0.41 0.332,-0.63c0.1,-0.221 0.133,-0.473 0.133,-0.756l-0,-4.85l2.024,0l-0,4.85c-0,0.504 -0.1,0.945 -0.266,1.417c-0.165,0.41 -0.398,0.756 -0.73,1.071c-0.298,0.315 -0.696,0.535 -1.194,0.693c-0.464,0.189 -0.962,0.252 -1.526,0.252c-0.597,-0 -1.095,-0.063 -1.56,-0.252c-0.497,-0.158 -0.862,-0.378 -1.194,-0.693c-0.299,-0.315 -0.564,-0.661 -0.73,-1.071c-0.166,-0.472 -0.232,-0.913 -0.232,-1.417l-0,-4.85l2.024,0l-0,4.85c-0,0.283 0.033,0.535 0.099,0.756c0.067,0.22 0.199,0.409 0.332,0.567c0.133,0.22 0.332,0.315 0.531,0.409c0.199,0.095 0.464,0.126 0.73,0.126Zm53.451,-4.314c0.465,-0 0.863,0.094 1.194,0.22c0.365,0.126 0.664,0.315 0.929,0.567c0.233,0.283 0.432,0.567 0.564,0.945c0.133,0.346 0.2,0.756 0.2,1.196c-0,0.441 -0.067,0.851 -0.2,1.26c-0.132,0.347 -0.331,0.661 -0.564,0.913c-0.265,0.252 -0.564,0.441 -0.929,0.599c-0.331,0.126 -0.729,0.189 -1.194,0.189c-0.431,-0 -0.829,-0.063 -1.194,-0.189c-0.332,-0.158 -0.664,-0.347 -0.896,-0.599c-0.266,-0.252 -0.465,-0.566 -0.597,-0.913c-0.133,-0.409 -0.2,-0.819 -0.2,-1.26c0,-0.44 0.067,-0.85 0.2,-1.196c0.132,-0.378 0.331,-0.662 0.597,-0.945c0.232,-0.252 0.564,-0.441 0.896,-0.567c0.365,-0.126 0.763,-0.22 1.194,-0.22Zm21.799,1.889l-0,3.149c-0.432,0.284 -0.896,0.504 -1.361,0.662c-0.497,0.126 -1.028,0.189 -1.592,0.189c-0.664,-0 -1.294,-0.095 -1.858,-0.284c-0.531,-0.189 -1.029,-0.472 -1.427,-0.85c-0.398,-0.346 -0.697,-0.787 -0.896,-1.323c-0.232,-0.504 -0.332,-1.07 -0.332,-1.669c0,-0.598 0.1,-1.165 0.299,-1.669c0.199,-0.535 0.498,-0.976 0.896,-1.323c0.365,-0.378 0.862,-0.629 1.393,-0.85c0.531,-0.189 1.128,-0.283 1.792,-0.283c0.332,-0 0.663,0.031 0.962,0.063c0.266,0.063 0.531,0.126 0.796,0.22c0.233,0.095 0.465,0.189 0.697,0.315c0.199,0.126 0.398,0.252 0.564,0.409l-0.365,0.536c-0.033,0.094 -0.133,0.157 -0.199,0.189c-0.099,-0 -0.199,-0 -0.298,-0.063c-0.1,-0.063 -0.233,-0.126 -0.332,-0.221c-0.133,-0.063 -0.266,-0.126 -0.465,-0.189c-0.166,-0.063 -0.365,-0.126 -0.597,-0.157c-0.232,-0.063 -0.498,-0.095 -0.796,-0.095c-0.465,0 -0.896,0.095 -1.261,0.221c-0.365,0.157 -0.697,0.346 -0.962,0.63c-0.266,0.283 -0.465,0.63 -0.631,1.007c-0.132,0.378 -0.199,0.788 -0.199,1.26c0,0.504 0.067,0.945 0.199,1.323c0.199,0.378 0.398,0.756 0.697,1.039c0.266,0.252 0.597,0.473 0.995,0.599c0.365,0.157 0.83,0.22 1.294,0.22c0.2,-0 0.365,-0 0.531,-0.032c0.166,-0.031 0.332,-0.063 0.465,-0.094c0.166,-0.031 0.298,-0.063 0.431,-0.126c0.133,-0.063 0.299,-0.126 0.431,-0.189l0,-1.732l-1.26,-0c-0.067,-0 -0.133,-0 -0.199,-0.063c-0.034,-0.032 -0.067,-0.095 -0.067,-0.157l0,-0.662l2.655,0Zm-34.772,-4.157l-2.621,8.094l-1.161,-0l-2.057,-5.984c-0.034,-0.126 -0.067,-0.315 -0.1,-0.472c-0.066,0.157 -0.1,0.346 -0.133,0.472l-2.09,5.984l-1.128,-0l-2.621,-8.094l1.028,0c0.1,0 0.199,0 0.266,0.063c0.099,0.063 0.133,0.126 0.166,0.221l1.659,5.385c0.033,0.126 0.066,0.22 0.099,0.346c0.033,0.158 0.033,0.284 0.067,0.41c0.033,-0.126 0.066,-0.252 0.099,-0.41c0.033,-0.126 0.066,-0.22 0.1,-0.346l1.891,-5.385c0.033,-0.095 0.099,-0.158 0.166,-0.221c0.066,-0.031 0.166,-0.063 0.265,-0.063l0.365,0c0.1,0 0.199,0 0.266,0.063c0.066,0.063 0.132,0.126 0.165,0.221l1.892,5.385c0.066,0.22 0.132,0.472 0.199,0.724c0.033,-0.252 0.099,-0.504 0.132,-0.724l1.693,-5.385c-0,-0.095 0.066,-0.158 0.132,-0.221c0.1,-0.031 0.166,-0.063 0.299,-0.063l0.962,0Zm8.461,0l-0,8.094l-0.631,-0c-0.099,-0 -0.166,-0.032 -0.232,-0.063c-0.066,-0.032 -0.133,-0.095 -0.199,-0.158l-4.778,-5.889l0,0.284c0,0.094 0.033,0.189 0.033,0.283l0,5.543l-1.161,-0l0,-8.094l0.697,0c0.099,0 0.199,0 0.232,0.032c0.066,0.031 0.133,0.063 0.199,0.157l4.778,5.952c-0,-0.157 -0,-0.252 -0.033,-0.378l-0,-5.763l1.095,0Zm14.632,0.441c-0,0.126 -0.034,0.252 -0.133,0.378l-4.678,6.298l4.711,0l0,0.977l-6.337,-0l-0,-0.473c-0,-0.063 -0,-0.126 0.033,-0.189c0,-0.063 0.033,-0.094 0.066,-0.157l4.679,-6.33l-4.546,-0l0,-0.945l6.205,0l-0,0.441Zm2.654,1.921l-0,5.732l-1.161,-0l-0,-5.732l1.161,0Zm13.57,-2.362c0.531,0 1.029,0.063 1.427,0.158c0.398,0.126 0.73,0.283 0.995,0.503c0.266,0.221 0.465,0.504 0.564,0.819c0.133,0.284 0.199,0.662 0.199,1.04c0,0.377 -0.066,0.724 -0.199,1.039c-0.133,0.315 -0.332,0.598 -0.597,0.819c-0.266,0.22 -0.597,0.409 -0.995,0.535c-0.399,0.126 -0.863,0.189 -1.394,0.189l-1.294,-0l0,2.992l-1.261,-0l0,-8.094l2.555,0Zm-60.551,3.181l0.298,-0c0.299,-0 0.498,-0.063 0.631,-0.252l1.957,-2.708c0.1,-0.126 0.232,-0.221 0.365,-0.284c0.133,-0.063 0.299,-0.063 0.498,-0.063l1.758,0l-2.588,3.307c-0.166,0.22 -0.365,0.409 -0.597,0.504c0.166,0.063 0.299,0.126 0.431,0.22c0.1,0.095 0.233,0.221 0.332,0.347l2.621,3.81l-2.09,0c-0.099,-0.031 -0.166,-0.031 -0.232,-0.063c-0.033,-0.031 -0.1,-0.063 -0.133,-0.126c-0.033,-0.031 -0.099,-0.094 -0.133,-0.157l-1.957,-2.866c-0.067,-0.094 -0.133,-0.157 -0.266,-0.22c-0.099,-0.032 -0.232,-0.063 -0.431,-0.063l-0.464,-0l-0,3.495l-2.024,0l-0,-8.188l2.024,0l-0,3.307Zm-9.058,1.575c0.066,0.157 0.132,0.314 0.199,0.472c0.099,-0.158 0.166,-0.315 0.232,-0.472c0.1,-0.158 0.166,-0.315 0.232,-0.441l2.223,-4.157c0.033,-0.095 0.067,-0.126 0.133,-0.189c0.033,-0.032 0.066,-0.063 0.133,-0.063c0.033,-0.032 0.099,-0.032 0.166,-0.032l1.758,0l0,8.188l-1.758,0l-0,-4.724c-0,-0.22 -0,-0.472 0.033,-0.724l-2.29,4.22c-0.066,0.126 -0.165,0.221 -0.298,0.315c-0.1,0.063 -0.232,0.094 -0.398,0.094l-0.299,0c-0.166,0 -0.299,-0.031 -0.398,-0.094c-0.133,-0.094 -0.232,-0.189 -0.299,-0.315l-2.289,-4.22c0.033,0.126 0.033,0.252 0.033,0.378l0,5.07l-1.725,0l-0,-8.188l1.725,0c0.067,0 0.133,0 0.166,0.032c0.066,-0 0.1,0.031 0.166,0.063c0.033,0.063 0.066,0.094 0.099,0.189l2.223,4.157c0.067,0.157 0.166,0.283 0.233,0.441Zm-33.743,3.243c-2.29,-0.409 -3.816,-2.488 -3.451,-4.724c0.431,-2.173 2.621,-3.621 4.977,-3.275c2.289,0.41 3.849,2.488 3.451,4.724c-0.432,2.173 -2.622,3.653 -4.977,3.275Zm77.008,-0.693c0.564,0 0.995,-0.189 1.294,-0.535c0.265,-0.378 0.398,-0.913 0.398,-1.575c0,-0.629 -0.133,-1.165 -0.398,-1.511c-0.299,-0.378 -0.73,-0.536 -1.294,-0.536c-0.564,0 -0.995,0.158 -1.261,0.536c-0.298,0.346 -0.431,0.882 -0.431,1.511c-0,0.662 0.133,1.197 0.431,1.575c0.266,0.346 0.697,0.535 1.261,0.535Zm26.344,-3.149c0.332,0 0.597,-0.031 0.83,-0.126c0.265,-0.063 0.464,-0.189 0.63,-0.315c0.166,-0.157 0.265,-0.315 0.365,-0.535c0.066,-0.189 0.133,-0.41 0.133,-0.661c-0,-0.473 -0.166,-0.882 -0.498,-1.166c-0.332,-0.283 -0.796,-0.441 -1.46,-0.441l-1.294,0l0,3.244l1.294,0Zm-115.562,-0.252c-1.128,-0.22 -1.891,-1.259 -1.725,-2.393c0.232,-1.071 1.327,-1.795 2.521,-1.638c1.128,0.221 1.925,1.26 1.726,2.394c-0.233,1.07 -1.328,1.826 -2.522,1.637Zm102.191,-3.338c-0,0.126 -0,0.22 -0.066,0.315c-0.034,0.063 -0.1,0.157 -0.166,0.22c-0.067,0.063 -0.166,0.126 -0.266,0.158c-0.099,0.063 -0.199,0.063 -0.298,0.063c-0.1,-0 -0.199,-0 -0.299,-0.063c-0.099,-0.032 -0.166,-0.095 -0.232,-0.158c-0.1,-0.063 -0.133,-0.157 -0.199,-0.22c-0.033,-0.095 -0.033,-0.189 -0.033,-0.315c-0,-0.094 -0,-0.189 0.033,-0.283c0.066,-0.095 0.099,-0.158 0.199,-0.252c0.066,-0.063 0.133,-0.095 0.232,-0.158c0.1,-0.031 0.199,-0.031 0.299,-0.031c0.099,-0 0.199,-0 0.298,0.031c0.1,0.063 0.199,0.095 0.266,0.158c0.066,0.094 0.132,0.157 0.166,0.252c0.066,0.094 0.066,0.189 0.066,0.283Z" style="fill:#fff;"/></svg>